<svg version="1.1" xmlns="http://www.w3.org/2000/svg" xmlns:xlink="http://www.w3.org/1999/xlink" x="0px" y="0px" viewBox="36.658 70.762 439.263 353.473" enable-background="new 36.658 70.762 439.263 353.473" xml:space="preserve" style="position: absolute;">
<g>
	<g id="">
		<path fill="#E6D421" d="M395.904,93.637c-7.953,31.812-37.113,37.113-58.32,47.717c0,95.431-92.041,124.061-168.917,137.313
			c-21.206,2.651-56.79,11.147-109,13.666c-41.19,1.985-24.333,52.667,28.736,47.835c-60.971,13.256-5.403,44.165,47.561,40.553
			c-45.297,2-64.274,12.605-29.812,33.812c26.508,15.906,77.285,8.158,101.541,5.162C270,412,344.744,395.975,392.459,366.814
			c53.018-31.812,88.272-95.568,77.67-164.491c-5.303-29.159-31.812-42.413-45.065-68.923c-7.951-18.555-2.649-53.017-26.509-60.97
			c-2.649,13.255-2.649,29.159,0,42.415L395.904,93.637z" class="color color-1" data-color="#E6D421"></path>
	</g>
</g>
<g id="">
	<g id="">
		<path d="M398.266,92.46c-3.793,14.392-12.711,24.872-25.409,32.317c-10.346,6.064-21.883,9.712-32.606,15.004
			c-0.205,0.102-0.327,0.352-0.328,0.572c-0.104,21.836-5.155,43.122-16.851,61.709c-10.563,16.788-26.039,29.854-42.936,39.943
			c-34.009,20.31-74.808,30.019-113.66,35.711c-20.448,2.997-40.715,6.927-61.249,9.392c-14.139,1.697-28.338,2.854-42.561,3.562
			c-6.562,0.327-13.228,1.91-18.29,6.304c-8.622,7.48-5.5,19.7,0.79,27.485c10.826,13.399,30.036,16.703,46.235,15.372
			c-0.059-0.436-0.118-0.868-0.176-1.303c-8.534,1.914-20.674,4.367-25.899,12.33c-3.451,5.261,0.871,10.775,4.887,14.064
			c7.595,6.221,17.848,9.403,27.195,11.776c13.507,3.43,27.666,4.543,41.554,3.684c0.847-0.053,0.857-1.366,0-1.325
			c-11.503,0.541-23.234,1.393-34.361,4.555c-5.001,1.423-11.311,3.73-13.428,8.949c-2.106,5.19,3.228,10.542,6.619,13.614
			c7.365,6.674,16.287,11.328,25.81,13.998c21.562,6.044,45.314,3.99,67.268,1.604c23.323-2.535,46.604-5.819,69.673-10.08
			c27.184-5.02,54.155-11.542,80.336-20.458c22.998-7.832,45.688-17.759,65.581-31.854c38.443-27.234,63.609-71.098,68.445-117.845
			c1.811-17.501,1.858-37.625-5.463-53.942c-7.309-16.285-21.779-28.119-32.395-42.11c-5.117-6.746-9.138-13.794-11.067-22.067
			c-1.661-7.127-2.434-14.446-3.751-21.64c-2.379-12.979-7.062-26.183-20.5-30.99c-0.319-0.115-0.751,0.126-0.813,0.463
			c-2.687,14.097-2.687,28.671,0,42.768c0.139,0.729,1.395,0.566,1.302-0.176c-0.884-7.07-1.768-14.139-2.649-21.209
			c-0.104-0.836-1.433-0.847-1.326,0c0.884,7.07,1.768,14.139,2.649,21.209c0.436-0.059,0.868-0.118,1.303-0.176
			c-1.379-7.244-1.961-14.539-1.961-21.906c0-3.475,0.227-6.945,0.534-10.404c0.194-2.185,0.508-4.356,0.842-6.523
			c0.483-3.135,1.411-2.255,3.813-1.008c9.193,4.771,12.74,15.427,14.837,24.857c2.075,9.337,2.762,18.935,5.216,28.194
			c2.614,9.861,9.354,18.302,15.793,25.994c7.553,9.021,15.957,17.305,22.457,27.167c7.448,11.298,9.579,23.678,10.381,36.965
			c1.561,25.9-3.68,51.938-14.332,75.533c-10.076,22.318-25.375,42.127-44.009,57.955c-19.304,16.398-42.66,27.466-66.231,36.259
			c-49.261,18.377-101.744,26.932-153.74,33.138c-14.464,1.728-29.015,2.928-43.592,2.624c-15.042-0.312-31.044-2.27-44.048-10.385
			c-6.579-4.104-23.407-15.354-12.042-23.401c4.467-3.164,10.372-4.396,15.633-5.472c8.936-1.825,18.126-2.444,27.219-2.872
			c0-0.441,0-0.884,0-1.326c-21.075,1.305-44.713-1.437-63.35-12.07c-4.891-2.789-12.533-8.359-9.449-14.91
			c3.826-8.127,17.794-10.561,25.415-12.27c0.723-0.162,0.573-1.363-0.176-1.303c-17.727,1.457-39.509-2.936-48.655-20.036
			c-2.968-5.549-3.397-12.264,0.051-17.675c4.562-7.16,14.108-8.511,21.818-8.896c25.899-1.291,51.617-4.525,77.185-8.767
			c17.884-2.967,35.833-5.567,53.57-9.34c37.93-8.065,77.261-20.476,107.163-46.173c14.104-12.124,25.039-27.471,31.584-44.89
			c3.596-9.573,5.6-19.675,6.572-29.833c0.264-2.75,0.396-5.512,0.492-8.272c0.121-3.529,0.604-4.162,3.732-5.603
			c4.529-2.086,9.165-3.94,13.751-5.896c19.108-8.147,35.314-19.21,40.875-40.312C399.762,91.985,398.482,91.635,398.266,92.46z"></path>
	</g>
</g>
<g id="">
	<g id="">
		<path d="M139.14,380.359c36.705-5.738,72.479-17.854,106.355-32.893c37.021-16.438,72.814-37.373,102.891-64.703
			c19.188-17.436,36.157-38.232,45.62-62.594c9.059-23.318,8.938-48.653,0.234-72.041c-0.295-0.793-1.576-0.45-1.277,0.353
			c29.136,78.29-45.294,141.618-105.697,176.359c-45.4,26.113-96.575,46.124-148.479,54.24
			C137.945,379.213,138.304,380.49,139.14,380.359L139.14,380.359z"></path>
	</g>
</g>
<g id="">
	<g id="">
		<path d="M91.579,339.807c68.903-20.858,139.57-40.125,202.29-76.513c41.682-24.181,86.634-61.913,83.127-114.987
			c-0.057-0.848-1.382-0.854-1.326,0c2.202,33.318-15.63,61.641-39.551,83.284c-28.013,25.345-62.921,42.759-97.426,57.415
			c-47.839,20.319-97.812,34.491-147.467,49.523C90.411,338.775,90.759,340.057,91.579,339.807L91.579,339.807z"></path>
	</g>
</g>
<g id="">
	<path d="M107.459,406.475c6.451,2.362-6.569-17.258-12.189-16.076C82.47,393.254,106.605,414.646,107.459,406.475"></path>
</g>
<g id="">
	<path d="M45.681,319.516c3.454,5.939,5.972-17.473,0.894-20.154C34.904,293.38,39.804,325.258,45.681,319.516"></path>
</g>
<g id="">
	<path d="M80.832,366.475c6.451,2.362-6.569-17.258-12.189-16.076C55.843,353.254,79.979,374.646,80.832,366.475"></path>
</g>
</svg>