<svg version="1.1" xmlns="http://www.w3.org/2000/svg" xmlns:xlink="http://www.w3.org/1999/xlink" x="0px" y="0px" viewBox="0 0 292.759 477.575" enable-background="new 0 0 292.759 477.575" xml:space="preserve" style="position: absolute;">
<g>
	<path fill="#F7931E" d="M89.776,406.675c0,0,31.309-6.054,38.011-24.711c6.703-18.658,14.517,29.582-26.126,32.286
		c5.966,9.294,22.982,30.084-15.214,6.836c-48.392-29.45-56.922-45.067-16.182-22.584L89.776,406.675z" class="color color-2" data-color="#F7931E"></path>
	<path fill="#F7931E" d="M182.864,389.366c0,0,6.183,65.187-3.962,68.612c-10.151,3.431-39.979,9.478-45.35,16.272
		c18.34,6.702,49.653,1.495,77.592-0.305c0,0-19.484-2.467-18.683-14.326c0.799-11.859,5.71-54.228-2.822-70.279
		C181.108,373.285,182.2,381.146,182.864,389.366" class="color color-2" data-color="#F7931E"></path>
</g>
<g>
	<path fill="hsl(210,100%,40%)" d="M43.719,110.452c2.567-6.493-7.062-72.8,74.117-103.61c81.175-30.81,147.548,48.535,127.487,116.361
		c-20.053,67.828-67.505,61.24-74.233,73.125c-6.729,11.877-25.333,61.918-17.21,60.196c8.129-1.729,58.937-1.927,89.722,73.322
		c1.722,5.925,13.567,3.335,21.975-11.943c8.406-15.275,24.363-49.212,26.965-33.98c2.603,15.23-17.396,98.304-95.255,112.161
		c-77.855,13.86-156.381-45.865-88.569-124.987c15.927-41.56,29.336-77.18,29.336-77.18s-49.916,12.898-75.48-26.798
		C41.384,162.968,38.69,123.178,43.719,110.452" class="color color-1" data-color="#FBB03B"></path>
</g>
<path id="change2_1_" fill="#F7931E" d="M62.585,169.656c0,0,6.923,8.938,1.669-5.934c-5.253-14.871,1.596-24.565-0.161-40.65
	c-1.755-16.083-19.821-14.281-19.821-14.281s-11.057,14.263-19.946,19.24c-8.888,4.975-10.001-2.001-17.943-5.253
	c-7.937-3.254-10.234-0.726,3.491,18.711C23.594,160.919,35.468,165.953,62.585,169.656"></path>
</svg>