<svg version="1.1" xmlns="http://www.w3.org/2000/svg" xmlns:xlink="http://www.w3.org/1999/xlink" x="0px" y="0px" viewBox="0 0 400 151.025" style="position: absolute;" xml:space="preserve">
<g>
	<path style="" d="M370.996,17.285C357.823-1.965,319.324,0.06,319.324,0.06H200.229h-0.459H80.674
		c0,0-38.499-2.024-51.672,17.225C15.83,36.535,9.878,53.379,0,52.749C0,60.599,0,73.01,0,73.01s10.766-1.013,11.778,8.104
		c1.014,9.118,12.16,69.91,68.896,69.91c85.107,0,97.265-107.396,116.515-107.396c1.045,0,1.969-0.149,2.812-0.395
		c0.843,0.244,1.767,0.395,2.812,0.395c19.25,0,31.408,107.396,116.515,107.396c56.735,0,67.885-60.792,68.896-69.91
		C389.234,71.998,400,73.01,400,73.01s0-12.412,0-20.262C390.121,53.379,384.171,36.535,370.996,17.285z M169.885,58.323
		c-5.7,34.953-45.593,83.586-88.198,84.344c-37.229,0.661-61.931-26.978-61.931-81.309s54.712-52.05,54.712-52.05s35.333,0,54.712,0
		C148.558,9.308,175.582,23.369,169.885,58.323z M318.312,142.667c-45.084-0.254-81.938-48.379-87.64-83.333
		c-5.7-34.954,20.769-50.024,40.146-50.024c19.381,0,54.713,0,54.713,0s54.713-2.28,54.713,52.051
		C380.243,115.69,355.547,142.874,318.312,142.667z" fill="#D1E066" class="color color-1" data-color="#D1E066"></path>
</g>
</svg>