<svg version="1.1" xmlns="http://www.w3.org/2000/svg" xmlns:xlink="http://www.w3.org/1999/xlink" x="0px" y="0px" viewBox="0 0 400 132.41" style="position: absolute;" xml:space="preserve">
<g>
	<path style="" d="M320.224,0c-60.896,0-87.354,17.208-120.225,17.666C167.129,17.208,140.673,0,79.776,0
		C32.36,0,0,11.289,0,11.289l2.635,27.469c0,0,9.407-2.635,11.289,4.514c1.881,7.152,7.525,59.083,21.824,73.378
		c19.945,20.318,90.31,21.828,111.384-0.377c36.124-31.981,30.479-78.266,51.928-78.266c0.323,0,0.627-0.023,0.939-0.03
		c0.314,0.007,0.621,0.03,0.941,0.03c21.448,0,15.803,46.283,51.929,78.266c21.07,22.205,91.439,20.695,111.381,0.377
		c14.301-14.295,19.949-66.227,21.824-73.378c1.882-7.148,11.291-4.514,11.291-4.514L400,11.289C400,11.289,367.638,0,320.224,0z
		 M88.053,124.176c-77.142,0-59.267-92.006-50.424-100.845C56.447,2.637,146.378,4.516,163.312,28.975
		C180.245,53.436,156.163,124.176,88.053,124.176z M311.947,124.176c-68.107,0-92.193-70.74-75.258-95.201
		c16.932-24.459,106.867-26.338,125.68-5.644C371.215,32.17,389.085,124.176,311.947,124.176z" fill="#ED826C" class="color color-1" data-color="#ED826C"></path>
</g>
<g>
	<path style="" d="M391.201,20.693c0,0-4.514,2.447-10.086,2.447c-5.575,0-10.091-2.447-10.091-2.447
		s4.516-2.445,10.091-2.445C386.688,18.248,391.201,20.693,391.201,20.693z" fill="#FFFFFF" class="color color-2" data-color="#FFFFFF"></path>
	<path style="" d="M28.458,20.693c0,0-4.519,2.447-10.088,2.447c-5.575,0-10.092-2.447-10.092-2.447
		s4.517-2.445,10.092-2.445C23.94,18.248,28.458,20.693,28.458,20.693z" fill="#FFFFFF" class="color color-2" data-color="#FFFFFF"></path>
</g>
</svg>