<svg version="1.1" xmlns="http://www.w3.org/2000/svg" xmlns:xlink="http://www.w3.org/1999/xlink" x="0px" y="0px" viewBox="0 0 764.799 359.999" enable-background="new 0 0 764.799 359.999" xml:space="preserve" style="position: absolute;">
<g id="">
	<g id="">
		<g id="">
			<g id="">
				<path fill="#424345" d="M16.769,88.137c-3.032,0-5.5-2.468-5.5-5.5v-18.76c0-3.032,2.468-5.5,5.5-5.5h36.935
					c3.032,0,5.5,2.468,5.5,5.5v18.76c0,3.032-2.468,5.5-5.5,5.5H16.769z"></path>
				<path fill="#C7C7C6" d="M53.703,58.877c2.757,0,5,2.244,5,5v18.76c0,2.756-2.243,5-5,5H16.769c-2.757,0-5-2.244-5-5v-18.76
					c0-2.756,2.243-5,5-5H53.703 M53.703,57.877H16.769c-3.309,0-6,2.691-6,6v18.76c0,3.309,2.691,6,6,6h36.935c3.309,0,6-2.691,6-6
					v-18.76C59.703,60.568,57.012,57.877,53.703,57.877L53.703,57.877z"></path>
			</g>
			<g id="">
				<path fill="#424345" d="M16.769,138.002c-3.032,0-5.5-2.468-5.5-5.5V98.545c0-3.032,2.468-5.5,5.5-5.5h34.935
					c3.032,0,5.5,2.468,5.5,5.5v33.957c0,3.032-2.468,5.5-5.5,5.5H16.769z"></path>
				<path fill="#C7C7C6" d="M51.703,93.545c2.757,0,5,2.242,5,5v33.957c0,2.756-2.243,5-5,5H16.769c-2.757,0-5-2.244-5-5V98.545
					c0-2.758,2.243-5,5-5H51.703 M51.703,92.545H16.769c-3.309,0-6,2.691-6,6v33.957c0,3.309,2.691,6,6,6h34.935
					c3.309,0,6-2.691,6-6V98.545C57.703,95.236,55.012,92.545,51.703,92.545L51.703,92.545z"></path>
			</g>
			<g id="">
				<path fill="#424345" d="M93.667,189.002c-3.032,0-5.5-2.468-5.5-5.5v-33.957c0-3.032,2.468-5.5,5.5-5.5h34.935
					c3.032,0,5.5,2.468,5.5,5.5v33.957c0,3.032-2.468,5.5-5.5,5.5H93.667z"></path>
				<path fill="#C7C7C6" d="M128.602,144.545c2.757,0,5,2.242,5,5v33.957c0,2.756-2.243,5-5,5H93.667c-2.757,0-5-2.244-5-5v-33.957
					c0-2.758,2.243-5,5-5H128.602 M128.602,143.545H93.667c-3.309,0-6,2.691-6,6v33.957c0,3.309,2.691,6,6,6h34.935
					c3.309,0,6-2.691,6-6v-33.957C134.602,146.236,131.91,143.545,128.602,143.545L128.602,143.545z"></path>
			</g>
			<g id="">
				<path fill="#424345" d="M145,189.002c-3.032,0-5.5-2.468-5.5-5.5v-33.957c0-3.032,2.468-5.5,5.5-5.5h34.935
					c3.032,0,5.5,2.468,5.5,5.5v33.957c0,3.032-2.468,5.5-5.5,5.5H145z"></path>
				<path fill="#C7C7C6" d="M179.935,144.545c2.757,0,5,2.242,5,5v33.957c0,2.756-2.243,5-5,5H145c-2.757,0-5-2.244-5-5v-33.957
					c0-2.758,2.243-5,5-5H179.935 M179.935,143.545H145c-3.309,0-6,2.691-6,6v33.957c0,3.309,2.691,6,6,6h34.935
					c3.309,0,6-2.691,6-6v-33.957C185.935,146.236,183.243,143.545,179.935,143.545L179.935,143.545z"></path>
			</g>
			<g id="">
				<path fill="#424345" d="M196.333,189.002c-3.032,0-5.5-2.468-5.5-5.5v-33.957c0-3.032,2.468-5.5,5.5-5.5h34.935
					c3.032,0,5.5,2.468,5.5,5.5v33.957c0,3.032-2.468,5.5-5.5,5.5H196.333z"></path>
				<path fill="#C7C7C6" d="M231.268,144.545c2.757,0,5,2.242,5,5v33.957c0,2.756-2.243,5-5,5h-34.935c-2.757,0-5-2.244-5-5v-33.957
					c0-2.758,2.243-5,5-5H231.268 M231.268,143.545h-34.935c-3.309,0-6,2.691-6,6v33.957c0,3.309,2.691,6,6,6h34.935
					c3.309,0,6-2.691,6-6v-33.957C237.268,146.236,234.576,143.545,231.268,143.545L231.268,143.545z"></path>
			</g>
			<g id="">
				<path fill="#424345" d="M247.666,189.002c-3.032,0-5.5-2.468-5.5-5.5v-33.957c0-3.032,2.468-5.5,5.5-5.5h34.935
					c3.032,0,5.5,2.468,5.5,5.5v33.957c0,3.032-2.468,5.5-5.5,5.5H247.666z"></path>
				<path fill="#C7C7C6" d="M282.601,144.545c2.757,0,5,2.242,5,5v33.957c0,2.756-2.243,5-5,5h-34.935c-2.757,0-5-2.244-5-5v-33.957
					c0-2.758,2.243-5,5-5H282.601 M282.601,143.545h-34.935c-3.309,0-6,2.691-6,6v33.957c0,3.309,2.691,6,6,6h34.935
					c3.309,0,6-2.691,6-6v-33.957C288.601,146.236,285.909,143.545,282.601,143.545L282.601,143.545z"></path>
			</g>
			<g id="">
				<path fill="#424345" d="M298.999,189.002c-3.032,0-5.5-2.468-5.5-5.5v-33.957c0-3.032,2.468-5.5,5.5-5.5h34.935
					c3.032,0,5.5,2.468,5.5,5.5v33.957c0,3.032-2.468,5.5-5.5,5.5H298.999z"></path>
				<path fill="#C7C7C6" d="M333.934,144.545c2.757,0,5,2.242,5,5v33.957c0,2.756-2.243,5-5,5h-34.935c-2.757,0-5-2.244-5-5v-33.957
					c0-2.758,2.243-5,5-5H333.934 M333.934,143.545h-34.935c-3.309,0-6,2.691-6,6v33.957c0,3.309,2.691,6,6,6h34.935
					c3.309,0,6-2.691,6-6v-33.957C339.934,146.236,337.242,143.545,333.934,143.545L333.934,143.545z"></path>
			</g>
			<g id="">
				<path fill="#424345" d="M350.332,189.002c-3.032,0-5.5-2.468-5.5-5.5v-33.957c0-3.032,2.468-5.5,5.5-5.5h34.935
					c3.032,0,5.5,2.468,5.5,5.5v33.957c0,3.032-2.468,5.5-5.5,5.5H350.332z"></path>
				<path fill="#C7C7C6" d="M385.267,144.545c2.757,0,5,2.242,5,5v33.957c0,2.756-2.243,5-5,5h-34.935c-2.757,0-5-2.244-5-5v-33.957
					c0-2.758,2.243-5,5-5H385.267 M385.267,143.545h-34.935c-3.309,0-6,2.691-6,6v33.957c0,3.309,2.691,6,6,6h34.935
					c3.309,0,6-2.691,6-6v-33.957C391.267,146.236,388.575,143.545,385.267,143.545L385.267,143.545z"></path>
			</g>
			<g id="">
				<path fill="#424345" d="M401.665,189.002c-3.032,0-5.5-2.468-5.5-5.5v-33.957c0-3.032,2.468-5.5,5.5-5.5H436.6
					c3.032,0,5.5,2.468,5.5,5.5v33.957c0,3.032-2.468,5.5-5.5,5.5H401.665z"></path>
				<path fill="#C7C7C6" d="M436.6,144.545c2.757,0,5,2.242,5,5v33.957c0,2.756-2.243,5-5,5h-34.935c-2.757,0-5-2.244-5-5v-33.957
					c0-2.758,2.243-5,5-5H436.6 M436.6,143.545h-34.935c-3.309,0-6,2.691-6,6v33.957c0,3.309,2.691,6,6,6H436.6c3.309,0,6-2.691,6-6
					v-33.957C442.6,146.236,439.908,143.545,436.6,143.545L436.6,143.545z"></path>
			</g>
			<g id="">
				<path fill="#424345" d="M452.998,189.002c-3.032,0-5.5-2.468-5.5-5.5v-33.957c0-3.032,2.468-5.5,5.5-5.5h34.935
					c3.032,0,5.5,2.468,5.5,5.5v33.957c0,3.032-2.468,5.5-5.5,5.5H452.998z"></path>
				<path fill="#C7C7C6" d="M487.933,144.545c2.757,0,5,2.242,5,5v33.957c0,2.756-2.243,5-5,5h-34.935c-2.757,0-5-2.244-5-5v-33.957
					c0-2.758,2.243-5,5-5H487.933 M487.933,143.545h-34.935c-3.309,0-6,2.691-6,6v33.957c0,3.309,2.691,6,6,6h34.935
					c3.309,0,6-2.691,6-6v-33.957C493.933,146.236,491.241,143.545,487.933,143.545L487.933,143.545z"></path>
			</g>
			<g id="">
				<path fill="#424345" d="M504.331,189.002c-3.032,0-5.5-2.468-5.5-5.5v-33.957c0-3.032,2.468-5.5,5.5-5.5h34.935
					c3.032,0,5.5,2.468,5.5,5.5v33.957c0,3.032-2.468,5.5-5.5,5.5H504.331z"></path>
				<path fill="#C7C7C6" d="M539.266,144.545c2.757,0,5,2.242,5,5v33.957c0,2.756-2.243,5-5,5h-34.935c-2.757,0-5-2.244-5-5v-33.957
					c0-2.758,2.243-5,5-5H539.266 M539.266,143.545h-34.935c-3.309,0-6,2.691-6,6v33.957c0,3.309,2.691,6,6,6h34.935
					c3.309,0,6-2.691,6-6v-33.957C545.266,146.236,542.574,143.545,539.266,143.545L539.266,143.545z"></path>
			</g>
			<g id="">
				<path fill="#424345" d="M555.664,189.002c-3.032,0-5.5-2.468-5.5-5.5v-33.957c0-3.032,2.468-5.5,5.5-5.5h34.935
					c3.032,0,5.5,2.468,5.5,5.5v33.957c0,3.032-2.468,5.5-5.5,5.5H555.664z"></path>
				<path fill="#C7C7C6" d="M590.599,144.545c2.757,0,5,2.242,5,5v33.957c0,2.756-2.243,5-5,5h-34.935c-2.757,0-5-2.244-5-5v-33.957
					c0-2.758,2.243-5,5-5H590.599 M590.599,143.545h-34.935c-3.309,0-6,2.691-6,6v33.957c0,3.309,2.691,6,6,6h34.935
					c3.309,0,6-2.691,6-6v-33.957C596.599,146.236,593.907,143.545,590.599,143.545L590.599,143.545z"></path>
			</g>
			<g id="">
				<path fill="#424345" d="M606.997,189.002c-3.032,0-5.5-2.468-5.5-5.5v-33.957c0-3.032,2.468-5.5,5.5-5.5h34.935
					c3.032,0,5.5,2.468,5.5,5.5v33.957c0,3.032-2.468,5.5-5.5,5.5H606.997z"></path>
				<path fill="#C7C7C6" d="M641.932,144.545c2.757,0,5,2.242,5,5v33.957c0,2.756-2.243,5-5,5h-34.935c-2.757,0-5-2.244-5-5v-33.957
					c0-2.758,2.243-5,5-5H641.932 M641.932,143.545h-34.935c-3.309,0-6,2.691-6,6v33.957c0,3.309,2.691,6,6,6h34.935
					c3.309,0,6-2.691,6-6v-33.957C647.932,146.236,645.24,143.545,641.932,143.545L641.932,143.545z"></path>
			</g>
			<g id="">
				<path fill="#424345" d="M658.33,189.002c-3.032,0-5.5-2.468-5.5-5.5v-33.957c0-3.032,2.468-5.5,5.5-5.5h34.935
					c3.032,0,5.5,2.468,5.5,5.5v33.957c0,3.032-2.468,5.5-5.5,5.5H658.33z"></path>
				<path fill="#C7C7C6" d="M693.265,144.545c2.757,0,5,2.242,5,5v33.957c0,2.756-2.243,5-5,5H658.33c-2.757,0-5-2.244-5-5v-33.957
					c0-2.758,2.243-5,5-5H693.265 M693.265,143.545H658.33c-3.309,0-6,2.691-6,6v33.957c0,3.309,2.691,6,6,6h34.935
					c3.309,0,6-2.691,6-6v-33.957C699.265,146.236,696.573,143.545,693.265,143.545L693.265,143.545z"></path>
			</g>
			<g id="">
				<path fill="#424345" d="M708.996,189.002c-3.032,0-5.5-2.468-5.5-5.5v-33.957c0-3.032,2.468-5.5,5.5-5.5h38.935
					c3.032,0,5.5,2.468,5.5,5.5v33.957c0,3.032-2.468,5.5-5.5,5.5H708.996z"></path>
				<path fill="#C7C7C6" d="M747.931,144.545c2.757,0,5,2.242,5,5v33.957c0,2.756-2.243,5-5,5h-38.935c-2.757,0-5-2.244-5-5v-33.957
					c0-2.758,2.243-5,5-5H747.931 M747.931,143.545h-38.935c-3.309,0-6,2.691-6,6v33.957c0,3.309,2.691,6,6,6h38.935
					c3.309,0,6-2.691,6-6v-33.957C753.931,146.236,751.239,143.545,747.931,143.545L747.931,143.545z"></path>
			</g>
			<g id="">
				<path fill="#424345" d="M16.769,189.002c-3.032,0-5.5-2.468-5.5-5.5v-33.957c0-3.032,2.468-5.5,5.5-5.5H77
					c3.032,0,5.5,2.468,5.5,5.5v33.957c0,3.032-2.468,5.5-5.5,5.5H16.769z"></path>
				<path fill="#C7C7C6" d="M77,144.545c2.757,0,5,2.242,5,5v33.957c0,2.756-2.243,5-5,5H16.769c-2.757,0-5-2.244-5-5v-33.957
					c0-2.758,2.243-5,5-5H77 M77,143.545H16.769c-3.309,0-6,2.691-6,6v33.957c0,3.309,2.691,6,6,6H77c3.309,0,6-2.691,6-6v-33.957
					C83,146.236,80.309,143.545,77,143.545L77,143.545z"></path>
			</g>
			<g id="">
				<path fill="#424345" d="M16.769,239.502c-3.032,0-5.5-2.468-5.5-5.5v-33.957c0-3.032,2.468-5.5,5.5-5.5H91
					c3.032,0,5.5,2.468,5.5,5.5v33.957c0,3.032-2.468,5.5-5.5,5.5H16.769z"></path>
				<path fill="#C7C7C6" d="M91,195.045c2.757,0,5,2.242,5,5v33.957c0,2.756-2.243,5-5,5H16.769c-2.757,0-5-2.244-5-5v-33.957
					c0-2.758,2.243-5,5-5H91 M91,194.045H16.769c-3.309,0-6,2.691-6,6v33.957c0,3.309,2.691,6,6,6H91c3.309,0,6-2.691,6-6v-33.957
					C97,196.736,94.309,194.045,91,194.045L91,194.045z"></path>
			</g>
			<g id="">
				<path fill="#424345" d="M16.769,289.501c-3.032,0-5.5-2.467-5.5-5.5v-33.956c0-3.032,2.468-5.5,5.5-5.5h99.861
					c3.032,0,5.5,2.468,5.5,5.5v33.956c0,3.033-2.468,5.5-5.5,5.5H16.769z"></path>
				<path fill="#C7C7C6" d="M116.63,245.045c2.757,0,5,2.242,5,5v33.956c0,2.756-2.243,5-5,5H16.769c-2.757,0-5-2.244-5-5v-33.956
					c0-2.758,2.243-5,5-5H116.63 M116.63,244.045H16.769c-3.309,0-6,2.691-6,6v33.956c0,3.309,2.691,6,6,6h99.861
					c3.309,0,6-2.691,6-6v-33.956C122.63,246.736,119.938,244.045,116.63,244.045L116.63,244.045z"></path>
			</g>
			<g id="">
				<path fill="#424345" d="M16.769,347.165c-3.032,0-5.5-2.467-5.5-5.5v-40.621c0-3.032,2.468-5.5,5.5-5.5h35.116
					c3.032,0,5.5,2.468,5.5,5.5v40.621c0,3.033-2.468,5.5-5.5,5.5H16.769z"></path>
				<path fill="#C7C7C6" d="M51.885,296.044c2.757,0,5,2.242,5,5v40.621c0,2.758-2.243,5-5,5H16.769c-2.757,0-5-2.242-5-5v-40.621
					c0-2.758,2.243-5,5-5H51.885 M51.885,295.044H16.769c-3.309,0-6,2.691-6,6v40.621c0,3.309,2.691,6,6,6h35.116
					c3.309,0,6-2.691,6-6v-40.621C57.885,297.735,55.193,295.044,51.885,295.044L51.885,295.044z"></path>
			</g>
			<g id="">
				<path fill="#424345" d="M68.011,347.165c-3.032,0-5.5-2.467-5.5-5.5v-40.621c0-3.032,2.468-5.5,5.5-5.5h35.116
					c3.032,0,5.5,2.468,5.5,5.5v40.621c0,3.033-2.468,5.5-5.5,5.5H68.011z"></path>
				<path fill="#C7C7C6" d="M103.127,296.044c2.757,0,5,2.242,5,5v40.621c0,2.758-2.243,5-5,5H68.011c-2.757,0-5-2.242-5-5v-40.621
					c0-2.758,2.243-5,5-5H103.127 M103.127,295.044H68.011c-3.309,0-6,2.691-6,6v40.621c0,3.309,2.691,6,6,6h35.116
					c3.309,0,6-2.691,6-6v-40.621C109.127,297.735,106.436,295.044,103.127,295.044L103.127,295.044z"></path>
			</g>
			<g id="">
				<path fill="#424345" d="M119.344,347.165c-3.032,0-5.5-2.467-5.5-5.5v-40.621c0-3.032,2.468-5.5,5.5-5.5h35.116
					c3.032,0,5.5,2.468,5.5,5.5v40.621c0,3.033-2.468,5.5-5.5,5.5H119.344z"></path>
				<path fill="#C7C7C6" d="M154.46,296.044c2.757,0,5,2.242,5,5v40.621c0,2.758-2.243,5-5,5h-35.116c-2.757,0-5-2.242-5-5v-40.621
					c0-2.758,2.243-5,5-5H154.46 M154.46,295.044h-35.116c-3.309,0-6,2.691-6,6v40.621c0,3.309,2.691,6,6,6h35.116
					c3.309,0,6-2.691,6-6v-40.621C160.46,297.735,157.769,295.044,154.46,295.044L154.46,295.044z"></path>
			</g>
			<g id="">
				<path fill="#424345" d="M170.677,347.165c-3.032,0-5.5-2.467-5.5-5.5v-40.621c0-3.032,2.468-5.5,5.5-5.5h48.116
					c3.032,0,5.5,2.468,5.5,5.5v40.621c0,3.033-2.468,5.5-5.5,5.5H170.677z"></path>
				<path fill="#C7C7C6" d="M218.793,296.044c2.757,0,5,2.242,5,5v40.621c0,2.758-2.243,5-5,5h-48.116c-2.757,0-5-2.242-5-5v-40.621
					c0-2.758,2.243-5,5-5H218.793 M218.793,295.044h-48.116c-3.309,0-6,2.691-6,6v40.621c0,3.309,2.691,6,6,6h48.116
					c3.309,0,6-2.691,6-6v-40.621C224.793,297.735,222.102,295.044,218.793,295.044L218.793,295.044z"></path>
			</g>
			<g id="">
				<path fill="#424345" d="M609.003,347.165c-3.032,0-5.5-2.467-5.5-5.5v-40.621c0-3.032,2.468-5.5,5.5-5.5h35.116
					c3.032,0,5.5,2.468,5.5,5.5v40.621c0,3.033-2.468,5.5-5.5,5.5H609.003z"></path>
				<path fill="#C7C7C6" d="M644.119,296.044c2.757,0,5,2.242,5,5v40.621c0,2.758-2.243,5-5,5h-35.116c-2.757,0-5-2.242-5-5v-40.621
					c0-2.758,2.243-5,5-5H644.119 M644.119,295.044h-35.116c-3.309,0-6,2.691-6,6v40.621c0,3.309,2.691,6,6,6h35.116
					c3.309,0,6-2.691,6-6v-40.621C650.119,297.735,647.428,295.044,644.119,295.044L644.119,295.044z"></path>
			</g>
			<g id="">
				<path fill="#424345" d="M557.873,347.165c-3.032,0-5.5-2.467-5.5-5.5v-40.621c0-3.032,2.468-5.5,5.5-5.5h35.116
					c3.032,0,5.5,2.468,5.5,5.5v40.621c0,3.033-2.468,5.5-5.5,5.5H557.873z"></path>
				<path fill="#C7C7C6" d="M592.989,296.044c2.757,0,5,2.242,5,5v40.621c0,2.758-2.243,5-5,5h-35.116c-2.757,0-5-2.242-5-5v-40.621
					c0-2.758,2.243-5,5-5H592.989 M592.989,295.044h-35.116c-3.309,0-6,2.691-6,6v40.621c0,3.309,2.691,6,6,6h35.116
					c3.309,0,6-2.691,6-6v-40.621C598.989,297.735,596.298,295.044,592.989,295.044L592.989,295.044z"></path>
			</g>
			<g id="">
				<path fill="#424345" d="M660.245,347.165c-3.032,0-5.5-2.467-5.5-5.5v-40.621c0-3.032,2.468-5.5,5.5-5.5h35.116
					c3.032,0,5.5,2.468,5.5,5.5v40.621c0,3.033-2.468,5.5-5.5,5.5H660.245z"></path>
				<path fill="#C7C7C6" d="M695.361,296.044c2.757,0,5,2.242,5,5v40.621c0,2.758-2.243,5-5,5h-35.116c-2.757,0-5-2.242-5-5v-40.621
					c0-2.758,2.243-5,5-5H695.361 M695.361,295.044h-35.116c-3.309,0-6,2.691-6,6v40.621c0,3.309,2.691,6,6,6h35.116
					c3.309,0,6-2.691,6-6v-40.621C701.361,297.735,698.67,295.044,695.361,295.044L695.361,295.044z"></path>
			</g>
			<g id="">
				<path fill="#424345" d="M711.578,347.165c-3.032,0-5.5-2.467-5.5-5.5v-40.621c0-3.032,2.468-5.5,5.5-5.5h35.116
					c3.032,0,5.5,2.468,5.5,5.5v40.621c0,3.033-2.468,5.5-5.5,5.5H711.578z"></path>
				<path fill="#C7C7C6" d="M746.694,296.044c2.757,0,5,2.242,5,5v40.621c0,2.758-2.243,5-5,5h-35.116c-2.757,0-5-2.242-5-5v-40.621
					c0-2.758,2.243-5,5-5H746.694 M746.694,295.044h-35.116c-3.309,0-6,2.691-6,6v40.621c0,3.309,2.691,6,6,6h35.116
					c3.309,0,6-2.691,6-6v-40.621C752.694,297.735,750.003,295.044,746.694,295.044L746.694,295.044z"></path>
			</g>
			<g id="">
				<path fill="#424345" d="M492.054,347.165c-3.032,0-5.5-2.467-5.5-5.5v-40.621c0-3.032,2.468-5.5,5.5-5.5h48.116
					c3.032,0,5.5,2.468,5.5,5.5v40.621c0,3.033-2.468,5.5-5.5,5.5H492.054z"></path>
				<path fill="#C7C7C6" d="M540.17,296.044c2.757,0,5,2.242,5,5v40.621c0,2.758-2.243,5-5,5h-48.116c-2.757,0-5-2.242-5-5v-40.621
					c0-2.758,2.243-5,5-5H540.17 M540.17,295.044h-48.116c-3.309,0-6,2.691-6,6v40.621c0,3.309,2.691,6,6,6h48.116
					c3.309,0,6-2.691,6-6v-40.621C546.17,297.735,543.479,295.044,540.17,295.044L540.17,295.044z"></path>
			</g>
			<g id="">
				<path fill="#424345" d="M235.376,347.165c-3.032,0-5.5-2.467-5.5-5.5v-40.621c0-3.032,2.468-5.5,5.5-5.5h239.39
					c3.032,0,5.5,2.468,5.5,5.5v40.621c0,3.033-2.468,5.5-5.5,5.5H235.376z"></path>
				<path fill="#C7C7C6" d="M474.766,296.044c2.757,0,5,2.242,5,5v40.621c0,2.758-2.243,5-5,5h-239.39c-2.757,0-5-2.242-5-5v-40.621
					c0-2.758,2.243-5,5-5H474.766 M474.766,295.044h-239.39c-3.309,0-6,2.692-6,6v40.621c0,3.309,2.691,6,6,6h239.39
					c3.309,0,6-2.691,6-6v-40.621C480.766,297.736,478.074,295.044,474.766,295.044L474.766,295.044z"></path>
			</g>
			<g id="">
				<path fill="#424345" d="M68.102,138.002c-3.032,0-5.5-2.468-5.5-5.5V98.545c0-3.032,2.468-5.5,5.5-5.5h34.935
					c3.032,0,5.5,2.468,5.5,5.5v33.957c0,3.032-2.468,5.5-5.5,5.5H68.102z"></path>
				<path fill="#C7C7C6" d="M103.036,93.545c2.757,0,5,2.242,5,5v33.957c0,2.756-2.243,5-5,5H68.102c-2.757,0-5-2.244-5-5V98.545
					c0-2.758,2.243-5,5-5H103.036 M103.036,92.545H68.102c-3.309,0-6,2.691-6,6v33.957c0,3.309,2.691,6,6,6h34.935
					c3.309,0,6-2.691,6-6V98.545C109.036,95.236,106.345,92.545,103.036,92.545L103.036,92.545z"></path>
			</g>
			<g id="">
				<path fill="#424345" d="M119.435,138.002c-3.032,0-5.5-2.468-5.5-5.5V98.545c0-3.032,2.468-5.5,5.5-5.5h34.935
					c3.032,0,5.5,2.468,5.5,5.5v33.957c0,3.032-2.468,5.5-5.5,5.5H119.435z"></path>
				<path fill="#C7C7C6" d="M154.369,93.545c2.757,0,5,2.242,5,5v33.957c0,2.756-2.243,5-5,5h-34.935c-2.757,0-5-2.244-5-5V98.545
					c0-2.758,2.243-5,5-5H154.369 M154.369,92.545h-34.935c-3.309,0-6,2.691-6,6v33.957c0,3.309,2.691,6,6,6h34.935
					c3.309,0,6-2.691,6-6V98.545C160.369,95.236,157.678,92.545,154.369,92.545L154.369,92.545z"></path>
			</g>
			<g id="">
				<path fill="#424345" d="M170.768,138.002c-3.032,0-5.5-2.468-5.5-5.5V98.545c0-3.032,2.468-5.5,5.5-5.5h34.935
					c3.032,0,5.5,2.468,5.5,5.5v33.957c0,3.032-2.468,5.5-5.5,5.5H170.768z"></path>
				<path fill="#C7C7C6" d="M205.702,93.545c2.757,0,5,2.242,5,5v33.957c0,2.756-2.243,5-5,5h-34.935c-2.757,0-5-2.244-5-5V98.545
					c0-2.758,2.243-5,5-5H205.702 M205.702,92.545h-34.935c-3.309,0-6,2.691-6,6v33.957c0,3.309,2.691,6,6,6h34.935
					c3.309,0,6-2.691,6-6V98.545C211.702,95.236,209.011,92.545,205.702,92.545L205.702,92.545z"></path>
			</g>
			<g id="">
				<path fill="#424345" d="M222.101,138.002c-3.032,0-5.5-2.468-5.5-5.5V98.545c0-3.032,2.468-5.5,5.5-5.5h34.935
					c3.032,0,5.5,2.468,5.5,5.5v33.957c0,3.032-2.468,5.5-5.5,5.5H222.101z"></path>
				<path fill="#C7C7C6" d="M257.035,93.545c2.757,0,5,2.242,5,5v33.957c0,2.756-2.243,5-5,5h-34.935c-2.757,0-5-2.244-5-5V98.545
					c0-2.758,2.243-5,5-5H257.035 M257.035,92.545h-34.935c-3.309,0-6,2.691-6,6v33.957c0,3.309,2.691,6,6,6h34.935
					c3.309,0,6-2.691,6-6V98.545C263.035,95.236,260.344,92.545,257.035,92.545L257.035,92.545z"></path>
			</g>
			<g id="">
				<path fill="#424345" d="M273.434,138.002c-3.032,0-5.5-2.468-5.5-5.5V98.545c0-3.032,2.468-5.5,5.5-5.5h34.935
					c3.032,0,5.5,2.468,5.5,5.5v33.957c0,3.032-2.468,5.5-5.5,5.5H273.434z"></path>
				<path fill="#C7C7C6" d="M308.368,93.545c2.757,0,5,2.242,5,5v33.957c0,2.756-2.243,5-5,5h-34.935c-2.757,0-5-2.244-5-5V98.545
					c0-2.758,2.243-5,5-5H308.368 M308.368,92.545h-34.935c-3.309,0-6,2.691-6,6v33.957c0,3.309,2.691,6,6,6h34.935
					c3.309,0,6-2.691,6-6V98.545C314.368,95.236,311.677,92.545,308.368,92.545L308.368,92.545z"></path>
			</g>
			<g id="">
				<path fill="#424345" d="M324.767,138.002c-3.032,0-5.5-2.468-5.5-5.5V98.545c0-3.032,2.468-5.5,5.5-5.5h34.935
					c3.032,0,5.5,2.468,5.5,5.5v33.957c0,3.032-2.468,5.5-5.5,5.5H324.767z"></path>
				<path fill="#C7C7C6" d="M359.701,93.545c2.757,0,5,2.242,5,5v33.957c0,2.756-2.243,5-5,5h-34.935c-2.757,0-5-2.244-5-5V98.545
					c0-2.758,2.243-5,5-5H359.701 M359.701,92.545h-34.935c-3.309,0-6,2.691-6,6v33.957c0,3.309,2.691,6,6,6h34.935
					c3.309,0,6-2.691,6-6V98.545C365.701,95.236,363.01,92.545,359.701,92.545L359.701,92.545z"></path>
			</g>
			<g id="">
				<path fill="#424345" d="M376.1,138.002c-3.032,0-5.5-2.468-5.5-5.5V98.545c0-3.032,2.468-5.5,5.5-5.5h34.935
					c3.032,0,5.5,2.468,5.5,5.5v33.957c0,3.032-2.468,5.5-5.5,5.5H376.1z"></path>
				<path fill="#C7C7C6" d="M411.034,93.545c2.757,0,5,2.242,5,5v33.957c0,2.756-2.243,5-5,5H376.1c-2.757,0-5-2.244-5-5V98.545
					c0-2.758,2.243-5,5-5H411.034 M411.034,92.545H376.1c-3.309,0-6,2.691-6,6v33.957c0,3.309,2.691,6,6,6h34.935
					c3.309,0,6-2.691,6-6V98.545C417.034,95.236,414.343,92.545,411.034,92.545L411.034,92.545z"></path>
			</g>
			<g id="">
				<path fill="#424345" d="M427.433,138.002c-3.032,0-5.5-2.468-5.5-5.5V98.545c0-3.032,2.468-5.5,5.5-5.5h34.935
					c3.032,0,5.5,2.468,5.5,5.5v33.957c0,3.032-2.468,5.5-5.5,5.5H427.433z"></path>
				<path fill="#C7C7C6" d="M462.367,93.545c2.757,0,5,2.242,5,5v33.957c0,2.756-2.243,5-5,5h-34.935c-2.757,0-5-2.244-5-5V98.545
					c0-2.758,2.243-5,5-5H462.367 M462.367,92.545h-34.935c-3.309,0-6,2.691-6,6v33.957c0,3.309,2.691,6,6,6h34.935
					c3.309,0,6-2.691,6-6V98.545C468.367,95.236,465.676,92.545,462.367,92.545L462.367,92.545z"></path>
			</g>
			<g id="">
				<path fill="#424345" d="M478.766,138.002c-3.032,0-5.5-2.468-5.5-5.5V98.545c0-3.032,2.468-5.5,5.5-5.5H513.7
					c3.032,0,5.5,2.468,5.5,5.5v33.957c0,3.032-2.468,5.5-5.5,5.5H478.766z"></path>
				<path fill="#C7C7C6" d="M513.7,93.545c2.757,0,5,2.242,5,5v33.957c0,2.756-2.243,5-5,5h-34.935c-2.757,0-5-2.244-5-5V98.545
					c0-2.758,2.243-5,5-5H513.7 M513.7,92.545h-34.935c-3.309,0-6,2.691-6,6v33.957c0,3.309,2.691,6,6,6H513.7c3.309,0,6-2.691,6-6
					V98.545C519.7,95.236,517.009,92.545,513.7,92.545L513.7,92.545z"></path>
			</g>
			<g id="">
				<path fill="#424345" d="M530.099,138.002c-3.032,0-5.5-2.468-5.5-5.5V98.545c0-3.032,2.468-5.5,5.5-5.5h34.935
					c3.032,0,5.5,2.468,5.5,5.5v33.957c0,3.032-2.468,5.5-5.5,5.5H530.099z"></path>
				<path fill="#C7C7C6" d="M565.033,93.545c2.757,0,5,2.242,5,5v33.957c0,2.756-2.243,5-5,5h-34.935c-2.757,0-5-2.244-5-5V98.545
					c0-2.758,2.243-5,5-5H565.033 M565.033,92.545h-34.935c-3.309,0-6,2.691-6,6v33.957c0,3.309,2.691,6,6,6h34.935
					c3.309,0,6-2.691,6-6V98.545C571.033,95.236,568.342,92.545,565.033,92.545L565.033,92.545z"></path>
			</g>
			<g id="">
				<path fill="#424345" d="M581.432,138.002c-3.032,0-5.5-2.468-5.5-5.5V98.545c0-3.032,2.468-5.5,5.5-5.5h34.935
					c3.032,0,5.5,2.468,5.5,5.5v33.957c0,3.032-2.468,5.5-5.5,5.5H581.432z"></path>
				<path fill="#C7C7C6" d="M616.366,93.545c2.757,0,5,2.242,5,5v33.957c0,2.756-2.243,5-5,5h-34.935c-2.757,0-5-2.244-5-5V98.545
					c0-2.758,2.243-5,5-5H616.366 M616.366,92.545h-34.935c-3.309,0-6,2.691-6,6v33.957c0,3.309,2.691,6,6,6h34.935
					c3.309,0,6-2.691,6-6V98.545C622.366,95.236,619.675,92.545,616.366,92.545L616.366,92.545z"></path>
			</g>
			<g id="">
				<path fill="#424345" d="M632.765,138.002c-3.032,0-5.5-2.468-5.5-5.5V98.545c0-3.032,2.468-5.5,5.5-5.5h34.935
					c3.032,0,5.5,2.468,5.5,5.5v33.957c0,3.032-2.468,5.5-5.5,5.5H632.765z"></path>
				<path fill="#C7C7C6" d="M667.699,93.545c2.757,0,5,2.242,5,5v33.957c0,2.756-2.243,5-5,5h-34.935c-2.757,0-5-2.244-5-5V98.545
					c0-2.758,2.243-5,5-5H667.699 M667.699,92.545h-34.935c-3.309,0-6,2.691-6,6v33.957c0,3.309,2.691,6,6,6h34.935
					c3.309,0,6-2.691,6-6V98.545C673.699,95.236,671.008,92.545,667.699,92.545L667.699,92.545z"></path>
			</g>
			<g id="">
				<path fill="#424345" d="M107.436,239.336c-3.032,0-5.5-2.468-5.5-5.5v-33.957c0-3.032,2.468-5.5,5.5-5.5h34.935
					c3.032,0,5.5,2.468,5.5,5.5v33.957c0,3.032-2.468,5.5-5.5,5.5H107.436z"></path>
				<path fill="#C7C7C6" d="M142.37,194.879c2.757,0,5,2.242,5,5v33.957c0,2.756-2.243,5-5,5h-34.935c-2.757,0-5-2.244-5-5v-33.957
					c0-2.758,2.243-5,5-5H142.37 M142.37,193.879h-34.935c-3.309,0-6,2.691-6,6v33.957c0,3.309,2.691,6,6,6h34.935
					c3.309,0,6-2.691,6-6v-33.957C148.37,196.57,145.679,193.879,142.37,193.879L142.37,193.879z"></path>
			</g>
			<g id="">
				<path fill="#424345" d="M158.769,239.336c-3.032,0-5.5-2.468-5.5-5.5v-33.957c0-3.032,2.468-5.5,5.5-5.5h34.935
					c3.032,0,5.5,2.468,5.5,5.5v33.957c0,3.032-2.468,5.5-5.5,5.5H158.769z"></path>
				<path fill="#C7C7C6" d="M193.703,194.879c2.757,0,5,2.242,5,5v33.957c0,2.756-2.243,5-5,5h-34.935c-2.757,0-5-2.244-5-5v-33.957
					c0-2.758,2.243-5,5-5H193.703 M193.703,193.879h-34.935c-3.309,0-6,2.691-6,6v33.957c0,3.309,2.691,6,6,6h34.935
					c3.309,0,6-2.691,6-6v-33.957C199.703,196.57,197.012,193.879,193.703,193.879L193.703,193.879z"></path>
			</g>
			<g id="">
				<path fill="#424345" d="M210.102,239.336c-3.032,0-5.5-2.468-5.5-5.5v-33.957c0-3.032,2.468-5.5,5.5-5.5h34.935
					c3.032,0,5.5,2.468,5.5,5.5v33.957c0,3.032-2.468,5.5-5.5,5.5H210.102z"></path>
				<path fill="#C7C7C6" d="M245.036,194.879c2.757,0,5,2.242,5,5v33.957c0,2.756-2.243,5-5,5h-34.935c-2.757,0-5-2.244-5-5v-33.957
					c0-2.758,2.243-5,5-5H245.036 M245.036,193.879h-34.935c-3.309,0-6,2.691-6,6v33.957c0,3.309,2.691,6,6,6h34.935
					c3.309,0,6-2.691,6-6v-33.957C251.036,196.57,248.345,193.879,245.036,193.879L245.036,193.879z"></path>
			</g>
			<g id="">
				<path fill="#424345" d="M261.435,239.336c-3.032,0-5.5-2.468-5.5-5.5v-33.957c0-3.032,2.468-5.5,5.5-5.5h34.935
					c3.032,0,5.5,2.468,5.5,5.5v33.957c0,3.032-2.468,5.5-5.5,5.5H261.435z"></path>
				<path fill="#C7C7C6" d="M296.369,194.879c2.757,0,5,2.242,5,5v33.957c0,2.756-2.243,5-5,5h-34.935c-2.757,0-5-2.244-5-5v-33.957
					c0-2.758,2.243-5,5-5H296.369 M296.369,193.879h-34.935c-3.309,0-6,2.691-6,6v33.957c0,3.309,2.691,6,6,6h34.935
					c3.309,0,6-2.691,6-6v-33.957C302.369,196.57,299.678,193.879,296.369,193.879L296.369,193.879z"></path>
			</g>
			<g id="">
				<path fill="#424345" d="M312.768,239.336c-3.032,0-5.5-2.468-5.5-5.5v-33.957c0-3.032,2.468-5.5,5.5-5.5h34.935
					c3.032,0,5.5,2.468,5.5,5.5v33.957c0,3.032-2.468,5.5-5.5,5.5H312.768z"></path>
				<path fill="#C7C7C6" d="M347.702,194.879c2.757,0,5,2.242,5,5v33.957c0,2.756-2.243,5-5,5h-34.935c-2.757,0-5-2.244-5-5v-33.957
					c0-2.758,2.243-5,5-5H347.702 M347.702,193.879h-34.935c-3.309,0-6,2.691-6,6v33.957c0,3.309,2.691,6,6,6h34.935
					c3.309,0,6-2.691,6-6v-33.957C353.702,196.57,351.011,193.879,347.702,193.879L347.702,193.879z"></path>
			</g>
			<g id="">
				<path fill="#424345" d="M364.101,239.336c-3.032,0-5.5-2.468-5.5-5.5v-33.957c0-3.032,2.468-5.5,5.5-5.5h34.935
					c3.032,0,5.5,2.468,5.5,5.5v33.957c0,3.032-2.468,5.5-5.5,5.5H364.101z"></path>
				<path fill="#C7C7C6" d="M399.035,194.879c2.757,0,5,2.242,5,5v33.957c0,2.756-2.243,5-5,5h-34.935c-2.757,0-5-2.244-5-5v-33.957
					c0-2.758,2.243-5,5-5H399.035 M399.035,193.879h-34.935c-3.309,0-6,2.691-6,6v33.957c0,3.309,2.691,6,6,6h34.935
					c3.309,0,6-2.691,6-6v-33.957C405.035,196.57,402.344,193.879,399.035,193.879L399.035,193.879z"></path>
			</g>
			<g id="">
				<path fill="#424345" d="M415.434,239.336c-3.032,0-5.5-2.468-5.5-5.5v-33.957c0-3.032,2.468-5.5,5.5-5.5h34.935
					c3.032,0,5.5,2.468,5.5,5.5v33.957c0,3.032-2.468,5.5-5.5,5.5H415.434z"></path>
				<path fill="#C7C7C6" d="M450.368,194.879c2.757,0,5,2.242,5,5v33.957c0,2.756-2.243,5-5,5h-34.935c-2.757,0-5-2.244-5-5v-33.957
					c0-2.758,2.243-5,5-5H450.368 M450.368,193.879h-34.935c-3.309,0-6,2.691-6,6v33.957c0,3.309,2.691,6,6,6h34.935
					c3.309,0,6-2.691,6-6v-33.957C456.368,196.57,453.677,193.879,450.368,193.879L450.368,193.879z"></path>
			</g>
			<g id="">
				<path fill="#424345" d="M466.767,239.336c-3.032,0-5.5-2.468-5.5-5.5v-33.957c0-3.032,2.468-5.5,5.5-5.5h34.935
					c3.032,0,5.5,2.468,5.5,5.5v33.957c0,3.032-2.468,5.5-5.5,5.5H466.767z"></path>
				<path fill="#C7C7C6" d="M501.701,194.879c2.757,0,5,2.242,5,5v33.957c0,2.756-2.243,5-5,5h-34.935c-2.757,0-5-2.244-5-5v-33.957
					c0-2.758,2.243-5,5-5H501.701 M501.701,193.879h-34.935c-3.309,0-6,2.691-6,6v33.957c0,3.309,2.691,6,6,6h34.935
					c3.309,0,6-2.691,6-6v-33.957C507.701,196.57,505.01,193.879,501.701,193.879L501.701,193.879z"></path>
			</g>
			<g id="">
				<path fill="#424345" d="M518.1,239.336c-3.032,0-5.5-2.468-5.5-5.5v-33.957c0-3.032,2.468-5.5,5.5-5.5h34.935
					c3.032,0,5.5,2.468,5.5,5.5v33.957c0,3.032-2.468,5.5-5.5,5.5H518.1z"></path>
				<path fill="#C7C7C6" d="M553.034,194.879c2.757,0,5,2.242,5,5v33.957c0,2.756-2.243,5-5,5H518.1c-2.757,0-5-2.244-5-5v-33.957
					c0-2.758,2.243-5,5-5H553.034 M553.034,193.879H518.1c-3.309,0-6,2.691-6,6v33.957c0,3.309,2.691,6,6,6h34.935
					c3.309,0,6-2.691,6-6v-33.957C559.034,196.57,556.343,193.879,553.034,193.879L553.034,193.879z"></path>
			</g>
			<g id="">
				<path fill="#424345" d="M569.433,239.336c-3.032,0-5.5-2.468-5.5-5.5v-33.957c0-3.032,2.468-5.5,5.5-5.5h34.935
					c3.032,0,5.5,2.468,5.5,5.5v33.957c0,3.032-2.468,5.5-5.5,5.5H569.433z"></path>
				<path fill="#C7C7C6" d="M604.367,194.879c2.757,0,5,2.242,5,5v33.957c0,2.756-2.243,5-5,5h-34.935c-2.757,0-5-2.244-5-5v-33.957
					c0-2.758,2.243-5,5-5H604.367 M604.367,193.879h-34.935c-3.309,0-6,2.691-6,6v33.957c0,3.309,2.691,6,6,6h34.935
					c3.309,0,6-2.691,6-6v-33.957C610.367,196.57,607.676,193.879,604.367,193.879L604.367,193.879z"></path>
			</g>
			<g id="">
				<path fill="#424345" d="M620.766,239.336c-3.032,0-5.5-2.468-5.5-5.5v-33.957c0-3.032,2.468-5.5,5.5-5.5H655.7
					c3.032,0,5.5,2.468,5.5,5.5v33.957c0,3.032-2.468,5.5-5.5,5.5H620.766z"></path>
				<path fill="#C7C7C6" d="M655.7,194.879c2.757,0,5,2.242,5,5v33.957c0,2.756-2.243,5-5,5h-34.935c-2.757,0-5-2.244-5-5v-33.957
					c0-2.758,2.243-5,5-5H655.7 M655.7,193.879h-34.935c-3.309,0-6,2.691-6,6v33.957c0,3.309,2.691,6,6,6H655.7c3.309,0,6-2.691,6-6
					v-33.957C661.7,196.57,659.009,193.879,655.7,193.879L655.7,193.879z"></path>
			</g>
			<g id="">
				<path fill="#424345" d="M132.902,289.501c-3.032,0-5.5-2.467-5.5-5.5v-33.956c0-3.032,2.468-5.5,5.5-5.5h34.935
					c3.032,0,5.5,2.468,5.5,5.5v33.956c0,3.033-2.468,5.5-5.5,5.5H132.902z"></path>
				<path fill="#C7C7C6" d="M167.837,245.045c2.757,0,5,2.242,5,5v33.956c0,2.756-2.243,5-5,5h-34.935c-2.757,0-5-2.244-5-5v-33.956
					c0-2.758,2.243-5,5-5H167.837 M167.837,244.045h-34.935c-3.309,0-6,2.691-6,6v33.956c0,3.309,2.691,6,6,6h34.935
					c3.309,0,6-2.691,6-6v-33.956C173.837,246.736,171.146,244.045,167.837,244.045L167.837,244.045z"></path>
			</g>
			<g id="">
				<path fill="#424345" d="M184.235,289.501c-3.032,0-5.5-2.467-5.5-5.5v-33.956c0-3.032,2.468-5.5,5.5-5.5h34.935
					c3.032,0,5.5,2.468,5.5,5.5v33.956c0,3.033-2.468,5.5-5.5,5.5H184.235z"></path>
				<path fill="#C7C7C6" d="M219.17,245.045c2.757,0,5,2.242,5,5v33.956c0,2.756-2.243,5-5,5h-34.935c-2.757,0-5-2.244-5-5v-33.956
					c0-2.758,2.243-5,5-5H219.17 M219.17,244.045h-34.935c-3.309,0-6,2.691-6,6v33.956c0,3.309,2.691,6,6,6h34.935
					c3.309,0,6-2.691,6-6v-33.956C225.17,246.736,222.479,244.045,219.17,244.045L219.17,244.045z"></path>
			</g>
			<g id="">
				<path fill="#424345" d="M235.568,289.501c-3.032,0-5.5-2.467-5.5-5.5v-33.956c0-3.032,2.468-5.5,5.5-5.5h34.935
					c3.032,0,5.5,2.468,5.5,5.5v33.956c0,3.033-2.468,5.5-5.5,5.5H235.568z"></path>
				<path fill="#C7C7C6" d="M270.503,245.045c2.757,0,5,2.242,5,5v33.956c0,2.756-2.243,5-5,5h-34.935c-2.757,0-5-2.244-5-5v-33.956
					c0-2.758,2.243-5,5-5H270.503 M270.503,244.045h-34.935c-3.309,0-6,2.691-6,6v33.956c0,3.309,2.691,6,6,6h34.935
					c3.309,0,6-2.691,6-6v-33.956C276.503,246.736,273.812,244.045,270.503,244.045L270.503,244.045z"></path>
			</g>
			<g id="">
				<path fill="#424345" d="M286.901,289.501c-3.032,0-5.5-2.467-5.5-5.5v-33.956c0-3.032,2.468-5.5,5.5-5.5h34.935
					c3.032,0,5.5,2.468,5.5,5.5v33.956c0,3.033-2.468,5.5-5.5,5.5H286.901z"></path>
				<path fill="#C7C7C6" d="M321.836,245.045c2.757,0,5,2.242,5,5v33.956c0,2.756-2.243,5-5,5h-34.935c-2.757,0-5-2.244-5-5v-33.956
					c0-2.758,2.243-5,5-5H321.836 M321.836,244.045h-34.935c-3.309,0-6,2.691-6,6v33.956c0,3.309,2.691,6,6,6h34.935
					c3.309,0,6-2.691,6-6v-33.956C327.836,246.736,325.145,244.045,321.836,244.045L321.836,244.045z"></path>
			</g>
			<g id="">
				<path fill="#424345" d="M338.234,289.501c-3.032,0-5.5-2.467-5.5-5.5v-33.956c0-3.032,2.468-5.5,5.5-5.5h34.935
					c3.032,0,5.5,2.468,5.5,5.5v33.956c0,3.033-2.468,5.5-5.5,5.5H338.234z"></path>
				<path fill="#C7C7C6" d="M373.169,245.045c2.757,0,5,2.242,5,5v33.956c0,2.756-2.243,5-5,5h-34.935c-2.757,0-5-2.244-5-5v-33.956
					c0-2.758,2.243-5,5-5H373.169 M373.169,244.045h-34.935c-3.309,0-6,2.691-6,6v33.956c0,3.309,2.691,6,6,6h34.935
					c3.309,0,6-2.691,6-6v-33.956C379.169,246.736,376.478,244.045,373.169,244.045L373.169,244.045z"></path>
			</g>
			<g id="">
				<path fill="#424345" d="M389.567,289.501c-3.032,0-5.5-2.467-5.5-5.5v-33.956c0-3.032,2.468-5.5,5.5-5.5h34.935
					c3.032,0,5.5,2.468,5.5,5.5v33.956c0,3.033-2.468,5.5-5.5,5.5H389.567z"></path>
				<path fill="#C7C7C6" d="M424.502,245.045c2.757,0,5,2.242,5,5v33.956c0,2.756-2.243,5-5,5h-34.935c-2.757,0-5-2.244-5-5v-33.956
					c0-2.758,2.243-5,5-5H424.502 M424.502,244.045h-34.935c-3.309,0-6,2.691-6,6v33.956c0,3.309,2.691,6,6,6h34.935
					c3.309,0,6-2.691,6-6v-33.956C430.502,246.736,427.811,244.045,424.502,244.045L424.502,244.045z"></path>
			</g>
			<g id="">
				<path fill="#424345" d="M440.9,289.501c-3.032,0-5.5-2.467-5.5-5.5v-33.956c0-3.032,2.468-5.5,5.5-5.5h34.935
					c3.032,0,5.5,2.468,5.5,5.5v33.956c0,3.033-2.468,5.5-5.5,5.5H440.9z"></path>
				<path fill="#C7C7C6" d="M475.835,245.045c2.757,0,5,2.242,5,5v33.956c0,2.756-2.243,5-5,5H440.9c-2.757,0-5-2.244-5-5v-33.956
					c0-2.758,2.243-5,5-5H475.835 M475.835,244.045H440.9c-3.309,0-6,2.691-6,6v33.956c0,3.309,2.691,6,6,6h34.935
					c3.309,0,6-2.691,6-6v-33.956C481.835,246.736,479.144,244.045,475.835,244.045L475.835,244.045z"></path>
			</g>
			<g id="">
				<path fill="#424345" d="M492.233,289.501c-3.032,0-5.5-2.467-5.5-5.5v-33.956c0-3.032,2.468-5.5,5.5-5.5h34.935
					c3.032,0,5.5,2.468,5.5,5.5v33.956c0,3.033-2.468,5.5-5.5,5.5H492.233z"></path>
				<path fill="#C7C7C6" d="M527.168,245.045c2.757,0,5,2.242,5,5v33.956c0,2.756-2.243,5-5,5h-34.935c-2.757,0-5-2.244-5-5v-33.956
					c0-2.758,2.243-5,5-5H527.168 M527.168,244.045h-34.935c-3.309,0-6,2.691-6,6v33.956c0,3.309,2.691,6,6,6h34.935
					c3.309,0,6-2.691,6-6v-33.956C533.168,246.736,530.477,244.045,527.168,244.045L527.168,244.045z"></path>
			</g>
			<g id="">
				<path fill="#424345" d="M543.566,289.501c-3.032,0-5.5-2.467-5.5-5.5v-33.956c0-3.032,2.468-5.5,5.5-5.5h34.935
					c3.032,0,5.5,2.468,5.5,5.5v33.956c0,3.033-2.468,5.5-5.5,5.5H543.566z"></path>
				<path fill="#C7C7C6" d="M578.501,245.045c2.757,0,5,2.242,5,5v33.956c0,2.756-2.243,5-5,5h-34.935c-2.757,0-5-2.244-5-5v-33.956
					c0-2.758,2.243-5,5-5H578.501 M578.501,244.045h-34.935c-3.309,0-6,2.691-6,6v33.956c0,3.309,2.691,6,6,6h34.935
					c3.309,0,6-2.691,6-6v-33.956C584.501,246.736,581.81,244.045,578.501,244.045L578.501,244.045z"></path>
			</g>
			<g id="">
				<path fill="#424345" d="M594.899,289.501c-3.032,0-5.5-2.467-5.5-5.5v-33.956c0-3.032,2.468-5.5,5.5-5.5h34.935
					c3.032,0,5.5,2.468,5.5,5.5v33.956c0,3.033-2.468,5.5-5.5,5.5H594.899z"></path>
				<path fill="#C7C7C6" d="M629.834,245.045c2.757,0,5,2.242,5,5v33.956c0,2.756-2.243,5-5,5h-34.935c-2.757,0-5-2.244-5-5v-33.956
					c0-2.758,2.243-5,5-5H629.834 M629.834,244.045h-34.935c-3.309,0-6,2.691-6,6v33.956c0,3.309,2.691,6,6,6h34.935
					c3.309,0,6-2.691,6-6v-33.956C635.834,246.736,633.143,244.045,629.834,244.045L629.834,244.045z"></path>
			</g>
			<g id="">
				<path fill="#424345" d="M646.232,289.501c-3.032,0-5.5-2.467-5.5-5.5v-33.956c0-3.032,2.468-5.5,5.5-5.5h101.698
					c3.032,0,5.5,2.468,5.5,5.5v33.956c0,3.033-2.468,5.5-5.5,5.5H646.232z"></path>
				<path fill="#C7C7C6" d="M747.931,245.045c2.757,0,5,2.242,5,5v33.956c0,2.756-2.243,5-5,5H646.232c-2.757,0-5-2.244-5-5v-33.956
					c0-2.758,2.243-5,5-5H747.931 M747.931,244.045H646.232c-3.309,0-6,2.691-6,6v33.956c0,3.309,2.691,6,6,6h101.698
					c3.309,0,6-2.691,6-6v-33.956C753.931,246.736,751.239,244.045,747.931,244.045L747.931,244.045z"></path>
			</g>
			<g id="">
				<path fill="#424345" d="M672.099,239.336c-3.032,0-5.5-2.468-5.5-5.5v-33.957c0-3.032,2.468-5.5,5.5-5.5h75.832
					c3.032,0,5.5,2.468,5.5,5.5v33.957c0,3.032-2.468,5.5-5.5,5.5H672.099z"></path>
				<path fill="#C7C7C6" d="M747.931,194.879c2.757,0,5,2.242,5,5v33.957c0,2.756-2.243,5-5,5h-75.832c-2.757,0-5-2.244-5-5v-33.957
					c0-2.758,2.243-5,5-5H747.931 M747.931,193.879h-75.832c-3.309,0-6,2.691-6,6v33.957c0,3.309,2.691,6,6,6h75.832
					c3.309,0,6-2.691,6-6v-33.957C753.931,196.57,751.239,193.879,747.931,193.879L747.931,193.879z"></path>
			</g>
			<g id="">
				<path fill="#424345" d="M684.098,138.002c-3.032,0-5.5-2.468-5.5-5.5V98.545c0-3.032,2.468-5.5,5.5-5.5H748
					c3.032,0,5.5,2.468,5.5,5.5v33.957c0,3.032-2.468,5.5-5.5,5.5H684.098z"></path>
				<path fill="#C7C7C6" d="M748,93.545c2.757,0,5,2.242,5,5v33.957c0,2.756-2.243,5-5,5h-63.902c-2.757,0-5-2.244-5-5V98.545
					c0-2.758,2.243-5,5-5H748 M748,92.545h-63.902c-3.309,0-6,2.691-6,6v33.957c0,3.309,2.691,6,6,6H748c3.309,0,6-2.691,6-6V98.545
					C754,95.236,751.309,92.545,748,92.545L748,92.545z"></path>
			</g>
			<g id="">
				<path fill="#424345" d="M70.199,88.137c-3.032,0-5.5-2.468-5.5-5.5v-18.76c0-3.032,2.468-5.5,5.5-5.5h36.935
					c3.032,0,5.5,2.468,5.5,5.5v18.76c0,3.032-2.468,5.5-5.5,5.5H70.199z"></path>
				<path fill="#C7C7C6" d="M107.134,58.877c2.757,0,5,2.244,5,5v18.76c0,2.756-2.243,5-5,5H70.199c-2.757,0-5-2.244-5-5v-18.76
					c0-2.756,2.243-5,5-5H107.134 M107.134,57.877H70.199c-3.309,0-6,2.691-6,6v18.76c0,3.309,2.691,6,6,6h36.935
					c3.309,0,6-2.691,6-6v-18.76C113.134,60.568,110.442,57.877,107.134,57.877L107.134,57.877z"></path>
			</g>
			<g id="">
				<path fill="#424345" d="M123.63,88.137c-3.032,0-5.5-2.468-5.5-5.5v-18.76c0-3.032,2.468-5.5,5.5-5.5h36.935
					c3.032,0,5.5,2.468,5.5,5.5v18.76c0,3.032-2.468,5.5-5.5,5.5H123.63z"></path>
				<path fill="#C7C7C6" d="M160.564,58.877c2.757,0,5,2.244,5,5v18.76c0,2.756-2.243,5-5,5H123.63c-2.757,0-5-2.244-5-5v-18.76
					c0-2.756,2.243-5,5-5H160.564 M160.564,57.877H123.63c-3.309,0-6,2.691-6,6v18.76c0,3.309,2.691,6,6,6h36.935
					c3.309,0,6-2.691,6-6v-18.76C166.564,60.568,163.873,57.877,160.564,57.877L160.564,57.877z"></path>
			</g>
			<g id="">
				<path fill="#424345" d="M177.061,88.137c-3.032,0-5.5-2.468-5.5-5.5v-18.76c0-3.032,2.468-5.5,5.5-5.5h36.935
					c3.032,0,5.5,2.468,5.5,5.5v18.76c0,3.032-2.468,5.5-5.5,5.5H177.061z"></path>
				<path fill="#C7C7C6" d="M213.995,58.877c2.757,0,5,2.244,5,5v18.76c0,2.756-2.243,5-5,5h-36.935c-2.757,0-5-2.244-5-5v-18.76
					c0-2.756,2.243-5,5-5H213.995 M213.995,57.877h-36.935c-3.309,0-6,2.691-6,6v18.76c0,3.309,2.691,6,6,6h36.935
					c3.309,0,6-2.691,6-6v-18.76C219.995,60.568,217.304,57.877,213.995,57.877L213.995,57.877z"></path>
			</g>
			<g id="">
				<path fill="#424345" d="M230.491,88.137c-3.032,0-5.5-2.468-5.5-5.5v-18.76c0-3.032,2.468-5.5,5.5-5.5h36.935
					c3.032,0,5.5,2.468,5.5,5.5v18.76c0,3.032-2.468,5.5-5.5,5.5H230.491z"></path>
				<path fill="#C7C7C6" d="M267.426,58.877c2.757,0,5,2.244,5,5v18.76c0,2.756-2.243,5-5,5h-36.935c-2.757,0-5-2.244-5-5v-18.76
					c0-2.756,2.243-5,5-5H267.426 M267.426,57.877h-36.935c-3.309,0-6,2.691-6,6v18.76c0,3.309,2.691,6,6,6h36.935
					c3.309,0,6-2.691,6-6v-18.76C273.426,60.568,270.734,57.877,267.426,57.877L267.426,57.877z"></path>
			</g>
			<g id="">
				<path fill="#424345" d="M283.922,88.137c-3.032,0-5.5-2.468-5.5-5.5v-18.76c0-3.032,2.468-5.5,5.5-5.5h36.935
					c3.032,0,5.5,2.468,5.5,5.5v18.76c0,3.032-2.468,5.5-5.5,5.5H283.922z"></path>
				<path fill="#C7C7C6" d="M320.856,58.877c2.757,0,5,2.244,5,5v18.76c0,2.756-2.243,5-5,5h-36.935c-2.757,0-5-2.244-5-5v-18.76
					c0-2.756,2.243-5,5-5H320.856 M320.856,57.877h-36.935c-3.309,0-6,2.691-6,6v18.76c0,3.309,2.691,6,6,6h36.935
					c3.309,0,6-2.691,6-6v-18.76C326.856,60.568,324.165,57.877,320.856,57.877L320.856,57.877z"></path>
			</g>
			<g id="">
				<path fill="#424345" d="M337.353,88.137c-3.032,0-5.5-2.468-5.5-5.5v-18.76c0-3.032,2.468-5.5,5.5-5.5h36.935
					c3.032,0,5.5,2.468,5.5,5.5v18.76c0,3.032-2.468,5.5-5.5,5.5H337.353z"></path>
				<path fill="#C7C7C6" d="M374.287,58.877c2.757,0,5,2.244,5,5v18.76c0,2.756-2.243,5-5,5h-36.935c-2.757,0-5-2.244-5-5v-18.76
					c0-2.756,2.243-5,5-5H374.287 M374.287,57.877h-36.935c-3.309,0-6,2.691-6,6v18.76c0,3.309,2.691,6,6,6h36.935
					c3.309,0,6-2.691,6-6v-18.76C380.287,60.568,377.596,57.877,374.287,57.877L374.287,57.877z"></path>
			</g>
			<g id="">
				<path fill="#424345" d="M390.783,88.137c-3.032,0-5.5-2.468-5.5-5.5v-18.76c0-3.032,2.468-5.5,5.5-5.5h36.935
					c3.032,0,5.5,2.468,5.5,5.5v18.76c0,3.032-2.468,5.5-5.5,5.5H390.783z"></path>
				<path fill="#C7C7C6" d="M427.718,58.877c2.757,0,5,2.244,5,5v18.76c0,2.756-2.243,5-5,5h-36.935c-2.757,0-5-2.244-5-5v-18.76
					c0-2.756,2.243-5,5-5H427.718 M427.718,57.877h-36.935c-3.309,0-6,2.691-6,6v18.76c0,3.309,2.691,6,6,6h36.935
					c3.309,0,6-2.691,6-6v-18.76C433.718,60.568,431.026,57.877,427.718,57.877L427.718,57.877z"></path>
			</g>
			<g id="">
				<path fill="#424345" d="M444.214,88.137c-3.032,0-5.5-2.468-5.5-5.5v-18.76c0-3.032,2.468-5.5,5.5-5.5h36.935
					c3.032,0,5.5,2.468,5.5,5.5v18.76c0,3.032-2.468,5.5-5.5,5.5H444.214z"></path>
				<path fill="#C7C7C6" d="M481.148,58.877c2.757,0,5,2.244,5,5v18.76c0,2.756-2.243,5-5,5h-36.935c-2.757,0-5-2.244-5-5v-18.76
					c0-2.756,2.243-5,5-5H481.148 M481.148,57.877h-36.935c-3.309,0-6,2.691-6,6v18.76c0,3.309,2.691,6,6,6h36.935
					c3.309,0,6-2.691,6-6v-18.76C487.148,60.568,484.457,57.877,481.148,57.877L481.148,57.877z"></path>
			</g>
			<g id="">
				<path fill="#424345" d="M497.645,88.137c-3.032,0-5.5-2.468-5.5-5.5v-18.76c0-3.032,2.468-5.5,5.5-5.5h36.935
					c3.032,0,5.5,2.468,5.5,5.5v18.76c0,3.032-2.468,5.5-5.5,5.5H497.645z"></path>
				<path fill="#C7C7C6" d="M534.579,58.877c2.757,0,5,2.244,5,5v18.76c0,2.756-2.243,5-5,5h-36.935c-2.757,0-5-2.244-5-5v-18.76
					c0-2.756,2.243-5,5-5H534.579 M534.579,57.877h-36.935c-3.309,0-6,2.691-6,6v18.76c0,3.309,2.691,6,6,6h36.935
					c3.309,0,6-2.691,6-6v-18.76C540.579,60.568,537.888,57.877,534.579,57.877L534.579,57.877z"></path>
			</g>
			<g id="">
				<path fill="#424345" d="M551.075,88.137c-3.032,0-5.5-2.468-5.5-5.5v-18.76c0-3.032,2.468-5.5,5.5-5.5h36.935
					c3.032,0,5.5,2.468,5.5,5.5v18.76c0,3.032-2.468,5.5-5.5,5.5H551.075z"></path>
				<path fill="#C7C7C6" d="M588.01,58.877c2.757,0,5,2.244,5,5v18.76c0,2.756-2.243,5-5,5h-36.935c-2.757,0-5-2.244-5-5v-18.76
					c0-2.756,2.243-5,5-5H588.01 M588.01,57.877h-36.935c-3.309,0-6,2.691-6,6v18.76c0,3.309,2.691,6,6,6h36.935
					c3.309,0,6-2.691,6-6v-18.76C594.01,60.568,591.318,57.877,588.01,57.877L588.01,57.877z"></path>
			</g>
			<g id="">
				<path fill="#424345" d="M604.506,88.137c-3.032,0-5.5-2.468-5.5-5.5v-18.76c0-3.032,2.468-5.5,5.5-5.5h36.935
					c3.032,0,5.5,2.468,5.5,5.5v18.76c0,3.032-2.468,5.5-5.5,5.5H604.506z"></path>
				<path fill="#C7C7C6" d="M641.44,58.877c2.757,0,5,2.244,5,5v18.76c0,2.756-2.243,5-5,5h-36.935c-2.757,0-5-2.244-5-5v-18.76
					c0-2.756,2.243-5,5-5H641.44 M641.44,57.877h-36.935c-3.309,0-6,2.691-6,6v18.76c0,3.309,2.691,6,6,6h36.935
					c3.309,0,6-2.691,6-6v-18.76C647.44,60.568,644.749,57.877,641.44,57.877L641.44,57.877z"></path>
			</g>
			<g id="">
				<path fill="#424345" d="M657.937,88.137c-3.032,0-5.5-2.468-5.5-5.5v-18.76c0-3.032,2.468-5.5,5.5-5.5h36.935
					c3.032,0,5.5,2.468,5.5,5.5v18.76c0,3.032-2.468,5.5-5.5,5.5H657.937z"></path>
				<path fill="#C7C7C6" d="M694.871,58.877c2.757,0,5,2.244,5,5v18.76c0,2.756-2.243,5-5,5h-36.935c-2.757,0-5-2.244-5-5v-18.76
					c0-2.756,2.243-5,5-5H694.871 M694.871,57.877h-36.935c-3.309,0-6,2.691-6,6v18.76c0,3.309,2.691,6,6,6h36.935
					c3.309,0,6-2.691,6-6v-18.76C700.871,60.568,698.18,57.877,694.871,57.877L694.871,57.877z"></path>
			</g>
			<g id="">
				<path fill="#424345" d="M711.367,88.137c-3.032,0-5.5-2.468-5.5-5.5v-18.76c0-3.032,2.468-5.5,5.5-5.5h36.935
					c3.032,0,5.5,2.468,5.5,5.5v18.76c0,3.032-2.468,5.5-5.5,5.5H711.367z"></path>
				<path fill="#C7C7C6" d="M748.302,58.877c2.757,0,5,2.244,5,5v18.76c0,2.756-2.243,5-5,5h-36.935c-2.757,0-5-2.244-5-5v-18.76
					c0-2.756,2.243-5,5-5H748.302 M748.302,57.877h-36.935c-3.309,0-6,2.691-6,6v18.76c0,3.309,2.691,6,6,6h36.935
					c3.309,0,6-2.691,6-6v-18.76C754.302,60.568,751.61,57.877,748.302,57.877L748.302,57.877z"></path>
			</g>
		</g>
		<linearGradient id="CANVA1_SVGID_1_" gradientUnits="userSpaceOnUse" x1="382.3999" y1="361.3281" x2="382.3999" y2="-0.3408">
			<stop offset="0" style="stop-color:#C0BFC1"></stop>
			<stop offset="0.8434" style="stop-color:#BABBBD"></stop>
			<stop offset="0.9398" style="stop-color:#E3E4E5"></stop>
			<stop offset="0.9508" style="stop-color:#DDDEDF"></stop>
			<stop offset="0.9623" style="stop-color:#CFCFD0"></stop>
			<stop offset="0.9739" style="stop-color:#BAB9BA"></stop>
			<stop offset="0.9857" style="stop-color:#9F9D9E"></stop>
			<stop offset="0.9974" style="stop-color:#807F80"></stop>
			<stop offset="1" style="stop-color:#797979"></stop>
		</linearGradient>
		<path fill="url(#CANVA1_SVGID_1_)" d="M760.299,0c-3.131,0-142.093,0-274.298,0c-41.978,0-123.227,0-207.203,0C146.593,0,7.631,0,4.5,0
			C1,3.5,0,18.5,0,32.5v307.499c0,11.047,8.954,20,20,20h278.798h167.203h278.798c11.046,0,20-8.953,20-20V32.5
			C764.799,18.5,763.799,3.5,760.299,0z"></path>
	</g>
	<g id="">
		<g id="">
			<path fill="#F1F0F0" d="M16.769,86.137c-1.93,0-3.5-1.57-3.5-3.5v-18.76c0-1.93,1.57-3.5,3.5-3.5h36.935c1.93,0,3.5,1.57,3.5,3.5
				v18.76c0,1.93-1.57,3.5-3.5,3.5H16.769z"></path>
			<path fill="#FFFFFF" d="M53.703,60.877c1.654,0,3,1.346,3,3v18.76c0,1.654-1.346,3-3,3H16.769c-1.654,0-3-1.346-3-3v-18.76
				c0-1.654,1.346-3,3-3H53.703 M53.703,59.877H16.769c-2.209,0-4,1.791-4,4v18.76c0,2.209,1.791,4,4,4h36.935c2.209,0,4-1.791,4-4
				v-18.76C57.703,61.668,55.912,59.877,53.703,59.877L53.703,59.877z"></path>
		</g>
		<g id="">
			<path fill="#F1F0F0" d="M16.769,136.002c-1.93,0-3.5-1.57-3.5-3.5V98.545c0-1.93,1.57-3.5,3.5-3.5h34.935
				c1.93,0,3.5,1.57,3.5,3.5v33.957c0,1.93-1.57,3.5-3.5,3.5H16.769z"></path>
			<path fill="#FFFFFF" d="M51.703,95.545c1.654,0,3,1.346,3,3v33.957c0,1.654-1.346,3-3,3H16.769c-1.654,0-3-1.346-3-3V98.545
				c0-1.654,1.346-3,3-3H51.703 M51.703,94.545H16.769c-2.209,0-4,1.791-4,4v33.957c0,2.209,1.791,4,4,4h34.935c2.209,0,4-1.791,4-4
				V98.545C55.703,96.336,53.912,94.545,51.703,94.545L51.703,94.545z"></path>
		</g>
		<g id="">
			<path fill="#F1F0F0" d="M93.667,187.002c-1.93,0-3.5-1.57-3.5-3.5v-33.957c0-1.93,1.57-3.5,3.5-3.5h34.935
				c1.93,0,3.5,1.57,3.5,3.5v33.957c0,1.93-1.57,3.5-3.5,3.5H93.667z"></path>
			<path fill="#FFFFFF" d="M128.602,146.545c1.654,0,3,1.346,3,3v33.957c0,1.654-1.346,3-3,3H93.667c-1.654,0-3-1.346-3-3v-33.957
				c0-1.654,1.346-3,3-3H128.602 M128.602,145.545H93.667c-2.209,0-4,1.791-4,4v33.957c0,2.209,1.791,4,4,4h34.935
				c2.209,0,4-1.791,4-4v-33.957C132.602,147.336,130.811,145.545,128.602,145.545L128.602,145.545z"></path>
		</g>
		<g id="">
			<path fill="#F1F0F0" d="M145,187.002c-1.93,0-3.5-1.57-3.5-3.5v-33.957c0-1.93,1.57-3.5,3.5-3.5h34.935c1.93,0,3.5,1.57,3.5,3.5
				v33.957c0,1.93-1.57,3.5-3.5,3.5H145z"></path>
			<path fill="#FFFFFF" d="M179.935,146.545c1.654,0,3,1.346,3,3v33.957c0,1.654-1.346,3-3,3H145c-1.654,0-3-1.346-3-3v-33.957
				c0-1.654,1.346-3,3-3H179.935 M179.935,145.545H145c-2.209,0-4,1.791-4,4v33.957c0,2.209,1.791,4,4,4h34.935c2.209,0,4-1.791,4-4
				v-33.957C183.935,147.336,182.144,145.545,179.935,145.545L179.935,145.545z"></path>
		</g>
		<g id="">
			<path fill="#F1F0F0" d="M196.333,187.002c-1.93,0-3.5-1.57-3.5-3.5v-33.957c0-1.93,1.57-3.5,3.5-3.5h34.935
				c1.93,0,3.5,1.57,3.5,3.5v33.957c0,1.93-1.57,3.5-3.5,3.5H196.333z"></path>
			<path fill="#FFFFFF" d="M231.268,146.545c1.654,0,3,1.346,3,3v33.957c0,1.654-1.346,3-3,3h-34.935c-1.654,0-3-1.346-3-3v-33.957
				c0-1.654,1.346-3,3-3H231.268 M231.268,145.545h-34.935c-2.209,0-4,1.791-4,4v33.957c0,2.209,1.791,4,4,4h34.935
				c2.209,0,4-1.791,4-4v-33.957C235.268,147.336,233.477,145.545,231.268,145.545L231.268,145.545z"></path>
		</g>
		<g id="">
			<path fill="#F1F0F0" d="M247.666,187.002c-1.93,0-3.5-1.57-3.5-3.5v-33.957c0-1.93,1.57-3.5,3.5-3.5h34.935
				c1.93,0,3.5,1.57,3.5,3.5v33.957c0,1.93-1.57,3.5-3.5,3.5H247.666z"></path>
			<path fill="#FFFFFF" d="M282.601,146.545c1.654,0,3,1.346,3,3v33.957c0,1.654-1.346,3-3,3h-34.935c-1.654,0-3-1.346-3-3v-33.957
				c0-1.654,1.346-3,3-3H282.601 M282.601,145.545h-34.935c-2.209,0-4,1.791-4,4v33.957c0,2.209,1.791,4,4,4h34.935
				c2.209,0,4-1.791,4-4v-33.957C286.601,147.336,284.81,145.545,282.601,145.545L282.601,145.545z"></path>
		</g>
		<g id="">
			<path fill="#F1F0F0" d="M298.999,187.002c-1.93,0-3.5-1.57-3.5-3.5v-33.957c0-1.93,1.57-3.5,3.5-3.5h34.935
				c1.93,0,3.5,1.57,3.5,3.5v33.957c0,1.93-1.57,3.5-3.5,3.5H298.999z"></path>
			<path fill="#FFFFFF" d="M333.934,146.545c1.654,0,3,1.346,3,3v33.957c0,1.654-1.346,3-3,3h-34.935c-1.654,0-3-1.346-3-3v-33.957
				c0-1.654,1.346-3,3-3H333.934 M333.934,145.545h-34.935c-2.209,0-4,1.791-4,4v33.957c0,2.209,1.791,4,4,4h34.935
				c2.209,0,4-1.791,4-4v-33.957C337.934,147.336,336.143,145.545,333.934,145.545L333.934,145.545z"></path>
		</g>
		<g id="">
			<path fill="#F1F0F0" d="M350.332,187.002c-1.93,0-3.5-1.57-3.5-3.5v-33.957c0-1.93,1.57-3.5,3.5-3.5h34.935
				c1.93,0,3.5,1.57,3.5,3.5v33.957c0,1.93-1.57,3.5-3.5,3.5H350.332z"></path>
			<path fill="#FFFFFF" d="M385.267,146.545c1.654,0,3,1.346,3,3v33.957c0,1.654-1.346,3-3,3h-34.935c-1.654,0-3-1.346-3-3v-33.957
				c0-1.654,1.346-3,3-3H385.267 M385.267,145.545h-34.935c-2.209,0-4,1.791-4,4v33.957c0,2.209,1.791,4,4,4h34.935
				c2.209,0,4-1.791,4-4v-33.957C389.267,147.336,387.476,145.545,385.267,145.545L385.267,145.545z"></path>
		</g>
		<g id="">
			<path fill="#F1F0F0" d="M401.665,187.002c-1.93,0-3.5-1.57-3.5-3.5v-33.957c0-1.93,1.57-3.5,3.5-3.5H436.6
				c1.93,0,3.5,1.57,3.5,3.5v33.957c0,1.93-1.57,3.5-3.5,3.5H401.665z"></path>
			<path fill="#FFFFFF" d="M436.6,146.545c1.654,0,3,1.346,3,3v33.957c0,1.654-1.346,3-3,3h-34.935c-1.654,0-3-1.346-3-3v-33.957
				c0-1.654,1.346-3,3-3H436.6 M436.6,145.545h-34.935c-2.209,0-4,1.791-4,4v33.957c0,2.209,1.791,4,4,4H436.6c2.209,0,4-1.791,4-4
				v-33.957C440.6,147.336,438.809,145.545,436.6,145.545L436.6,145.545z"></path>
		</g>
		<g id="">
			<path fill="#F1F0F0" d="M452.998,187.002c-1.93,0-3.5-1.57-3.5-3.5v-33.957c0-1.93,1.57-3.5,3.5-3.5h34.935
				c1.93,0,3.5,1.57,3.5,3.5v33.957c0,1.93-1.57,3.5-3.5,3.5H452.998z"></path>
			<path fill="#FFFFFF" d="M487.933,146.545c1.654,0,3,1.346,3,3v33.957c0,1.654-1.346,3-3,3h-34.935c-1.654,0-3-1.346-3-3v-33.957
				c0-1.654,1.346-3,3-3H487.933 M487.933,145.545h-34.935c-2.209,0-4,1.791-4,4v33.957c0,2.209,1.791,4,4,4h34.935
				c2.209,0,4-1.791,4-4v-33.957C491.933,147.336,490.142,145.545,487.933,145.545L487.933,145.545z"></path>
		</g>
		<g id="">
			<path fill="#F1F0F0" d="M504.331,187.002c-1.93,0-3.5-1.57-3.5-3.5v-33.957c0-1.93,1.57-3.5,3.5-3.5h34.935
				c1.93,0,3.5,1.57,3.5,3.5v33.957c0,1.93-1.57,3.5-3.5,3.5H504.331z"></path>
			<path fill="#FFFFFF" d="M539.266,146.545c1.654,0,3,1.346,3,3v33.957c0,1.654-1.346,3-3,3h-34.935c-1.654,0-3-1.346-3-3v-33.957
				c0-1.654,1.346-3,3-3H539.266 M539.266,145.545h-34.935c-2.209,0-4,1.791-4,4v33.957c0,2.209,1.791,4,4,4h34.935
				c2.209,0,4-1.791,4-4v-33.957C543.266,147.336,541.475,145.545,539.266,145.545L539.266,145.545z"></path>
		</g>
		<g id="">
			<path fill="#F1F0F0" d="M555.664,187.002c-1.93,0-3.5-1.57-3.5-3.5v-33.957c0-1.93,1.57-3.5,3.5-3.5h34.935
				c1.93,0,3.5,1.57,3.5,3.5v33.957c0,1.93-1.57,3.5-3.5,3.5H555.664z"></path>
			<path fill="#FFFFFF" d="M590.599,146.545c1.654,0,3,1.346,3,3v33.957c0,1.654-1.346,3-3,3h-34.935c-1.654,0-3-1.346-3-3v-33.957
				c0-1.654,1.346-3,3-3H590.599 M590.599,145.545h-34.935c-2.209,0-4,1.791-4,4v33.957c0,2.209,1.791,4,4,4h34.935
				c2.209,0,4-1.791,4-4v-33.957C594.599,147.336,592.808,145.545,590.599,145.545L590.599,145.545z"></path>
		</g>
		<g id="">
			<path fill="#F1F0F0" d="M606.997,187.002c-1.93,0-3.5-1.57-3.5-3.5v-33.957c0-1.93,1.57-3.5,3.5-3.5h34.935
				c1.93,0,3.5,1.57,3.5,3.5v33.957c0,1.93-1.57,3.5-3.5,3.5H606.997z"></path>
			<path fill="#FFFFFF" d="M641.932,146.545c1.654,0,3,1.346,3,3v33.957c0,1.654-1.346,3-3,3h-34.935c-1.654,0-3-1.346-3-3v-33.957
				c0-1.654,1.346-3,3-3H641.932 M641.932,145.545h-34.935c-2.209,0-4,1.791-4,4v33.957c0,2.209,1.791,4,4,4h34.935
				c2.209,0,4-1.791,4-4v-33.957C645.932,147.336,644.141,145.545,641.932,145.545L641.932,145.545z"></path>
		</g>
		<g id="">
			<path fill="#F1F0F0" d="M658.33,187.002c-1.93,0-3.5-1.57-3.5-3.5v-33.957c0-1.93,1.57-3.5,3.5-3.5h34.935
				c1.93,0,3.5,1.57,3.5,3.5v33.957c0,1.93-1.57,3.5-3.5,3.5H658.33z"></path>
			<path fill="#FFFFFF" d="M693.265,146.545c1.654,0,3,1.346,3,3v33.957c0,1.654-1.346,3-3,3H658.33c-1.654,0-3-1.346-3-3v-33.957
				c0-1.654,1.346-3,3-3H693.265 M693.265,145.545H658.33c-2.209,0-4,1.791-4,4v33.957c0,2.209,1.791,4,4,4h34.935
				c2.209,0,4-1.791,4-4v-33.957C697.265,147.336,695.474,145.545,693.265,145.545L693.265,145.545z"></path>
		</g>
		<g id="">
			<path fill="#F1F0F0" d="M708.996,187.002c-1.93,0-3.5-1.57-3.5-3.5v-33.957c0-1.93,1.57-3.5,3.5-3.5h38.935
				c1.93,0,3.5,1.57,3.5,3.5v33.957c0,1.93-1.57,3.5-3.5,3.5H708.996z"></path>
			<path fill="#FFFFFF" d="M747.931,146.545c1.654,0,3,1.346,3,3v33.957c0,1.654-1.346,3-3,3h-38.935c-1.654,0-3-1.346-3-3v-33.957
				c0-1.654,1.346-3,3-3H747.931 M747.931,145.545h-38.935c-2.209,0-4,1.791-4,4v33.957c0,2.209,1.791,4,4,4h38.935
				c2.209,0,4-1.791,4-4v-33.957C751.931,147.336,750.14,145.545,747.931,145.545L747.931,145.545z"></path>
		</g>
		<g id="">
			<path fill="#F1F0F0" d="M16.769,187.002c-1.93,0-3.5-1.57-3.5-3.5v-33.957c0-1.93,1.57-3.5,3.5-3.5H77c1.93,0,3.5,1.57,3.5,3.5
				v33.957c0,1.93-1.57,3.5-3.5,3.5H16.769z"></path>
			<path fill="#FFFFFF" d="M77,146.545c1.654,0,3,1.346,3,3v33.957c0,1.654-1.346,3-3,3H16.769c-1.654,0-3-1.346-3-3v-33.957
				c0-1.654,1.346-3,3-3H77 M77,145.545H16.769c-2.209,0-4,1.791-4,4v33.957c0,2.209,1.791,4,4,4H77c2.209,0,4-1.791,4-4v-33.957
				C81,147.336,79.209,145.545,77,145.545L77,145.545z"></path>
		</g>
		<g id="">
			<path fill="#F1F0F0" d="M16.769,237.502c-1.93,0-3.5-1.57-3.5-3.5v-33.957c0-1.93,1.57-3.5,3.5-3.5H91c1.93,0,3.5,1.57,3.5,3.5
				v33.957c0,1.93-1.57,3.5-3.5,3.5H16.769z"></path>
			<path fill="#FFFFFF" d="M91,197.045c1.654,0,3,1.346,3,3v33.957c0,1.654-1.346,3-3,3H16.769c-1.654,0-3-1.346-3-3v-33.957
				c0-1.654,1.346-3,3-3H91 M91,196.045H16.769c-2.209,0-4,1.791-4,4v33.957c0,2.209,1.791,4,4,4H91c2.209,0,4-1.791,4-4v-33.957
				C95,197.836,93.209,196.045,91,196.045L91,196.045z"></path>
		</g>
		<g id="">
			<path fill="#F1F0F0" d="M16.769,287.501c-1.93,0-3.5-1.57-3.5-3.5v-33.956c0-1.93,1.57-3.5,3.5-3.5h99.861
				c1.93,0,3.5,1.57,3.5,3.5v33.956c0,1.93-1.57,3.5-3.5,3.5H16.769z"></path>
			<path fill="#FFFFFF" d="M116.63,247.045c1.654,0,3,1.346,3,3v33.956c0,1.654-1.346,3-3,3H16.769c-1.654,0-3-1.346-3-3v-33.956
				c0-1.654,1.346-3,3-3H116.63 M116.63,246.045H16.769c-2.209,0-4,1.791-4,4v33.956c0,2.209,1.791,4,4,4h99.861
				c2.209,0,4-1.791,4-4v-33.956C120.63,247.836,118.839,246.045,116.63,246.045L116.63,246.045z"></path>
		</g>
		<g id="">
			<path fill="#F1F0F0" d="M16.769,345.165c-1.93,0-3.5-1.57-3.5-3.5v-40.621c0-1.93,1.57-3.5,3.5-3.5h35.116
				c1.93,0,3.5,1.57,3.5,3.5v40.621c0,1.93-1.57,3.5-3.5,3.5H16.769z"></path>
			<path fill="#FFFFFF" d="M51.885,298.044c1.654,0,3,1.346,3,3v40.621c0,1.654-1.346,3-3,3H16.769c-1.654,0-3-1.346-3-3v-40.621
				c0-1.654,1.346-3,3-3H51.885 M51.885,297.044H16.769c-2.209,0-4,1.791-4,4v40.621c0,2.209,1.791,4,4,4h35.116
				c2.209,0,4-1.791,4-4v-40.621C55.885,298.835,54.094,297.044,51.885,297.044L51.885,297.044z"></path>
		</g>
		<g id="">
			<path fill="#F1F0F0" d="M68.011,345.165c-1.93,0-3.5-1.57-3.5-3.5v-40.621c0-1.93,1.57-3.5,3.5-3.5h35.116
				c1.93,0,3.5,1.57,3.5,3.5v40.621c0,1.93-1.57,3.5-3.5,3.5H68.011z"></path>
			<path fill="#FFFFFF" d="M103.127,298.044c1.654,0,3,1.346,3,3v40.621c0,1.654-1.346,3-3,3H68.011c-1.654,0-3-1.346-3-3v-40.621
				c0-1.654,1.346-3,3-3H103.127 M103.127,297.044H68.011c-2.209,0-4,1.791-4,4v40.621c0,2.209,1.791,4,4,4h35.116
				c2.209,0,4-1.791,4-4v-40.621C107.127,298.835,105.336,297.044,103.127,297.044L103.127,297.044z"></path>
		</g>
		<g id="">
			<path fill="#F1F0F0" d="M119.344,345.165c-1.93,0-3.5-1.57-3.5-3.5v-40.621c0-1.93,1.57-3.5,3.5-3.5h35.116
				c1.93,0,3.5,1.57,3.5,3.5v40.621c0,1.93-1.57,3.5-3.5,3.5H119.344z"></path>
			<path fill="#FFFFFF" d="M154.46,298.044c1.654,0,3,1.346,3,3v40.621c0,1.654-1.346,3-3,3h-35.116c-1.654,0-3-1.346-3-3v-40.621
				c0-1.654,1.346-3,3-3H154.46 M154.46,297.044h-35.116c-2.209,0-4,1.791-4,4v40.621c0,2.209,1.791,4,4,4h35.116
				c2.209,0,4-1.791,4-4v-40.621C158.46,298.835,156.669,297.044,154.46,297.044L154.46,297.044z"></path>
		</g>
		<g id="">
			<path fill="#F1F0F0" d="M170.677,345.165c-1.93,0-3.5-1.57-3.5-3.5v-40.621c0-1.93,1.57-3.5,3.5-3.5h48.116
				c1.93,0,3.5,1.57,3.5,3.5v40.621c0,1.93-1.57,3.5-3.5,3.5H170.677z"></path>
			<path fill="#FFFFFF" d="M218.793,298.044c1.654,0,3,1.346,3,3v40.621c0,1.654-1.346,3-3,3h-48.116c-1.654,0-3-1.346-3-3v-40.621
				c0-1.654,1.346-3,3-3H218.793 M218.793,297.044h-48.116c-2.209,0-4,1.791-4,4v40.621c0,2.209,1.791,4,4,4h48.116
				c2.209,0,4-1.791,4-4v-40.621C222.793,298.835,221.002,297.044,218.793,297.044L218.793,297.044z"></path>
		</g>
		<g id="">
			<path fill="#F1F0F0" d="M609.003,345.165c-1.93,0-3.5-1.57-3.5-3.5v-40.621c0-1.93,1.57-3.5,3.5-3.5h35.116
				c1.93,0,3.5,1.57,3.5,3.5v40.621c0,1.93-1.57,3.5-3.5,3.5H609.003z"></path>
			<path fill="#FFFFFF" d="M644.119,298.044c1.654,0,3,1.346,3,3v40.621c0,1.654-1.346,3-3,3h-35.116c-1.654,0-3-1.346-3-3v-40.621
				c0-1.654,1.346-3,3-3H644.119 M644.119,297.044h-35.116c-2.209,0-4,1.791-4,4v40.621c0,2.209,1.791,4,4,4h35.116
				c2.209,0,4-1.791,4-4v-40.621C648.119,298.835,646.328,297.044,644.119,297.044L644.119,297.044z"></path>
		</g>
		<g id="">
			<path fill="#F1F0F0" d="M557.873,345.165c-1.93,0-3.5-1.57-3.5-3.5v-40.621c0-1.93,1.57-3.5,3.5-3.5h35.116
				c1.93,0,3.5,1.57,3.5,3.5v40.621c0,1.93-1.57,3.5-3.5,3.5H557.873z"></path>
			<path fill="#FFFFFF" d="M592.989,298.044c1.654,0,3,1.346,3,3v40.621c0,1.654-1.346,3-3,3h-35.116c-1.654,0-3-1.346-3-3v-40.621
				c0-1.654,1.346-3,3-3H592.989 M592.989,297.044h-35.116c-2.209,0-4,1.791-4,4v40.621c0,2.209,1.791,4,4,4h35.116
				c2.209,0,4-1.791,4-4v-40.621C596.989,298.835,595.198,297.044,592.989,297.044L592.989,297.044z"></path>
		</g>
		<g id="">
			<path fill="#F1F0F0" d="M660.245,345.165c-1.93,0-3.5-1.57-3.5-3.5v-40.621c0-1.93,1.57-3.5,3.5-3.5h35.116
				c1.93,0,3.5,1.57,3.5,3.5v40.621c0,1.93-1.57,3.5-3.5,3.5H660.245z"></path>
			<path fill="#FFFFFF" d="M695.361,298.044c1.654,0,3,1.346,3,3v40.621c0,1.654-1.346,3-3,3h-35.116c-1.654,0-3-1.346-3-3v-40.621
				c0-1.654,1.346-3,3-3H695.361 M695.361,297.044h-35.116c-2.209,0-4,1.791-4,4v40.621c0,2.209,1.791,4,4,4h35.116
				c2.209,0,4-1.791,4-4v-40.621C699.361,298.835,697.57,297.044,695.361,297.044L695.361,297.044z"></path>
		</g>
		<g id="">
			<path fill="#F1F0F0" d="M711.578,345.165c-1.93,0-3.5-1.57-3.5-3.5v-40.621c0-1.93,1.57-3.5,3.5-3.5h35.116
				c1.93,0,3.5,1.57,3.5,3.5v40.621c0,1.93-1.57,3.5-3.5,3.5H711.578z"></path>
			<path fill="#FFFFFF" d="M746.694,298.044c1.654,0,3,1.346,3,3v40.621c0,1.654-1.346,3-3,3h-35.116c-1.654,0-3-1.346-3-3v-40.621
				c0-1.654,1.346-3,3-3H746.694 M746.694,297.044h-35.116c-2.209,0-4,1.791-4,4v40.621c0,2.209,1.791,4,4,4h35.116
				c2.209,0,4-1.791,4-4v-40.621C750.694,298.835,748.903,297.044,746.694,297.044L746.694,297.044z"></path>
		</g>
		<g id="">
			<path fill="#F1F0F0" d="M492.054,345.165c-1.93,0-3.5-1.57-3.5-3.5v-40.621c0-1.93,1.57-3.5,3.5-3.5h48.116
				c1.93,0,3.5,1.57,3.5,3.5v40.621c0,1.93-1.57,3.5-3.5,3.5H492.054z"></path>
			<path fill="#FFFFFF" d="M540.17,298.044c1.654,0,3,1.346,3,3v40.621c0,1.654-1.346,3-3,3h-48.116c-1.654,0-3-1.346-3-3v-40.621
				c0-1.654,1.346-3,3-3H540.17 M540.17,297.044h-48.116c-2.209,0-4,1.791-4,4v40.621c0,2.209,1.791,4,4,4h48.116
				c2.209,0,4-1.791,4-4v-40.621C544.17,298.835,542.379,297.044,540.17,297.044L540.17,297.044z"></path>
		</g>
		<g id="">
			<path fill="#F1F0F0" d="M235.376,345.165c-1.93,0-3.5-1.57-3.5-3.5v-40.621c0-1.93,1.57-3.5,3.5-3.5h239.39
				c1.93,0,3.5,1.57,3.5,3.5v40.621c0,1.93-1.57,3.5-3.5,3.5H235.376z"></path>
			<path fill="#FFFFFF" d="M474.766,298.044c1.654,0,3,1.346,3,3v40.621c0,1.654-1.346,3-3,3h-239.39c-1.654,0-3-1.346-3-3v-40.621
				c0-1.654,1.346-3,3-3H474.766 M474.766,297.044h-239.39c-2.209,0-4,1.791-4,4v40.621c0,2.209,1.791,4,4,4h239.39
				c2.209,0,4-1.791,4-4v-40.621C478.766,298.835,476.975,297.044,474.766,297.044L474.766,297.044z"></path>
		</g>
		<g id="">
			<path fill="#F1F0F0" d="M68.102,136.002c-1.93,0-3.5-1.57-3.5-3.5V98.545c0-1.93,1.57-3.5,3.5-3.5h34.935
				c1.93,0,3.5,1.57,3.5,3.5v33.957c0,1.93-1.57,3.5-3.5,3.5H68.102z"></path>
			<path fill="#FFFFFF" d="M103.036,95.545c1.654,0,3,1.346,3,3v33.957c0,1.654-1.346,3-3,3H68.102c-1.654,0-3-1.346-3-3V98.545
				c0-1.654,1.346-3,3-3H103.036 M103.036,94.545H68.102c-2.209,0-4,1.791-4,4v33.957c0,2.209,1.791,4,4,4h34.935
				c2.209,0,4-1.791,4-4V98.545C107.036,96.336,105.245,94.545,103.036,94.545L103.036,94.545z"></path>
		</g>
		<g id="">
			<path fill="#F1F0F0" d="M119.435,136.002c-1.93,0-3.5-1.57-3.5-3.5V98.545c0-1.93,1.57-3.5,3.5-3.5h34.935
				c1.93,0,3.5,1.57,3.5,3.5v33.957c0,1.93-1.57,3.5-3.5,3.5H119.435z"></path>
			<path fill="#FFFFFF" d="M154.369,95.545c1.654,0,3,1.346,3,3v33.957c0,1.654-1.346,3-3,3h-34.935c-1.654,0-3-1.346-3-3V98.545
				c0-1.654,1.346-3,3-3H154.369 M154.369,94.545h-34.935c-2.209,0-4,1.791-4,4v33.957c0,2.209,1.791,4,4,4h34.935
				c2.209,0,4-1.791,4-4V98.545C158.369,96.336,156.578,94.545,154.369,94.545L154.369,94.545z"></path>
		</g>
		<g id="">
			<path fill="#F1F0F0" d="M170.768,136.002c-1.93,0-3.5-1.57-3.5-3.5V98.545c0-1.93,1.57-3.5,3.5-3.5h34.935
				c1.93,0,3.5,1.57,3.5,3.5v33.957c0,1.93-1.57,3.5-3.5,3.5H170.768z"></path>
			<path fill="#FFFFFF" d="M205.702,95.545c1.654,0,3,1.346,3,3v33.957c0,1.654-1.346,3-3,3h-34.935c-1.654,0-3-1.346-3-3V98.545
				c0-1.654,1.346-3,3-3H205.702 M205.702,94.545h-34.935c-2.209,0-4,1.791-4,4v33.957c0,2.209,1.791,4,4,4h34.935
				c2.209,0,4-1.791,4-4V98.545C209.702,96.336,207.911,94.545,205.702,94.545L205.702,94.545z"></path>
		</g>
		<g id="">
			<path fill="#F1F0F0" d="M222.101,136.002c-1.93,0-3.5-1.57-3.5-3.5V98.545c0-1.93,1.57-3.5,3.5-3.5h34.935
				c1.93,0,3.5,1.57,3.5,3.5v33.957c0,1.93-1.57,3.5-3.5,3.5H222.101z"></path>
			<path fill="#FFFFFF" d="M257.035,95.545c1.654,0,3,1.346,3,3v33.957c0,1.654-1.346,3-3,3h-34.935c-1.654,0-3-1.346-3-3V98.545
				c0-1.654,1.346-3,3-3H257.035 M257.035,94.545h-34.935c-2.209,0-4,1.791-4,4v33.957c0,2.209,1.791,4,4,4h34.935
				c2.209,0,4-1.791,4-4V98.545C261.035,96.336,259.244,94.545,257.035,94.545L257.035,94.545z"></path>
		</g>
		<g id="">
			<path fill="#F1F0F0" d="M273.434,136.002c-1.93,0-3.5-1.57-3.5-3.5V98.545c0-1.93,1.57-3.5,3.5-3.5h34.935
				c1.93,0,3.5,1.57,3.5,3.5v33.957c0,1.93-1.57,3.5-3.5,3.5H273.434z"></path>
			<path fill="#FFFFFF" d="M308.368,95.545c1.654,0,3,1.346,3,3v33.957c0,1.654-1.346,3-3,3h-34.935c-1.654,0-3-1.346-3-3V98.545
				c0-1.654,1.346-3,3-3H308.368 M308.368,94.545h-34.935c-2.209,0-4,1.791-4,4v33.957c0,2.209,1.791,4,4,4h34.935
				c2.209,0,4-1.791,4-4V98.545C312.368,96.336,310.577,94.545,308.368,94.545L308.368,94.545z"></path>
		</g>
		<g id="">
			<path fill="#F1F0F0" d="M324.767,136.002c-1.93,0-3.5-1.57-3.5-3.5V98.545c0-1.93,1.57-3.5,3.5-3.5h34.935
				c1.93,0,3.5,1.57,3.5,3.5v33.957c0,1.93-1.57,3.5-3.5,3.5H324.767z"></path>
			<path fill="#FFFFFF" d="M359.701,95.545c1.654,0,3,1.346,3,3v33.957c0,1.654-1.346,3-3,3h-34.935c-1.654,0-3-1.346-3-3V98.545
				c0-1.654,1.346-3,3-3H359.701 M359.701,94.545h-34.935c-2.209,0-4,1.791-4,4v33.957c0,2.209,1.791,4,4,4h34.935
				c2.209,0,4-1.791,4-4V98.545C363.701,96.336,361.91,94.545,359.701,94.545L359.701,94.545z"></path>
		</g>
		<g id="">
			<path fill="#F1F0F0" d="M376.1,136.002c-1.93,0-3.5-1.57-3.5-3.5V98.545c0-1.93,1.57-3.5,3.5-3.5h34.935c1.93,0,3.5,1.57,3.5,3.5
				v33.957c0,1.93-1.57,3.5-3.5,3.5H376.1z"></path>
			<path fill="#FFFFFF" d="M411.034,95.545c1.654,0,3,1.346,3,3v33.957c0,1.654-1.346,3-3,3H376.1c-1.654,0-3-1.346-3-3V98.545
				c0-1.654,1.346-3,3-3H411.034 M411.034,94.545H376.1c-2.209,0-4,1.791-4,4v33.957c0,2.209,1.791,4,4,4h34.935
				c2.209,0,4-1.791,4-4V98.545C415.034,96.336,413.243,94.545,411.034,94.545L411.034,94.545z"></path>
		</g>
		<g id="">
			<path fill="#F1F0F0" d="M427.433,136.002c-1.93,0-3.5-1.57-3.5-3.5V98.545c0-1.93,1.57-3.5,3.5-3.5h34.935
				c1.93,0,3.5,1.57,3.5,3.5v33.957c0,1.93-1.57,3.5-3.5,3.5H427.433z"></path>
			<path fill="#FFFFFF" d="M462.367,95.545c1.654,0,3,1.346,3,3v33.957c0,1.654-1.346,3-3,3h-34.935c-1.654,0-3-1.346-3-3V98.545
				c0-1.654,1.346-3,3-3H462.367 M462.367,94.545h-34.935c-2.209,0-4,1.791-4,4v33.957c0,2.209,1.791,4,4,4h34.935
				c2.209,0,4-1.791,4-4V98.545C466.367,96.336,464.576,94.545,462.367,94.545L462.367,94.545z"></path>
		</g>
		<g id="">
			<path fill="#F1F0F0" d="M478.766,136.002c-1.93,0-3.5-1.57-3.5-3.5V98.545c0-1.93,1.57-3.5,3.5-3.5H513.7
				c1.93,0,3.5,1.57,3.5,3.5v33.957c0,1.93-1.57,3.5-3.5,3.5H478.766z"></path>
			<path fill="#FFFFFF" d="M513.7,95.545c1.654,0,3,1.346,3,3v33.957c0,1.654-1.346,3-3,3h-34.935c-1.654,0-3-1.346-3-3V98.545
				c0-1.654,1.346-3,3-3H513.7 M513.7,94.545h-34.935c-2.209,0-4,1.791-4,4v33.957c0,2.209,1.791,4,4,4H513.7c2.209,0,4-1.791,4-4
				V98.545C517.7,96.336,515.909,94.545,513.7,94.545L513.7,94.545z"></path>
		</g>
		<g id="">
			<path fill="#F1F0F0" d="M530.099,136.002c-1.93,0-3.5-1.57-3.5-3.5V98.545c0-1.93,1.57-3.5,3.5-3.5h34.935
				c1.93,0,3.5,1.57,3.5,3.5v33.957c0,1.93-1.57,3.5-3.5,3.5H530.099z"></path>
			<path fill="#FFFFFF" d="M565.033,95.545c1.654,0,3,1.346,3,3v33.957c0,1.654-1.346,3-3,3h-34.935c-1.654,0-3-1.346-3-3V98.545
				c0-1.654,1.346-3,3-3H565.033 M565.033,94.545h-34.935c-2.209,0-4,1.791-4,4v33.957c0,2.209,1.791,4,4,4h34.935
				c2.209,0,4-1.791,4-4V98.545C569.033,96.336,567.242,94.545,565.033,94.545L565.033,94.545z"></path>
		</g>
		<g id="">
			<path fill="#F1F0F0" d="M581.432,136.002c-1.93,0-3.5-1.57-3.5-3.5V98.545c0-1.93,1.57-3.5,3.5-3.5h34.935
				c1.93,0,3.5,1.57,3.5,3.5v33.957c0,1.93-1.57,3.5-3.5,3.5H581.432z"></path>
			<path fill="#FFFFFF" d="M616.366,95.545c1.654,0,3,1.346,3,3v33.957c0,1.654-1.346,3-3,3h-34.935c-1.654,0-3-1.346-3-3V98.545
				c0-1.654,1.346-3,3-3H616.366 M616.366,94.545h-34.935c-2.209,0-4,1.791-4,4v33.957c0,2.209,1.791,4,4,4h34.935
				c2.209,0,4-1.791,4-4V98.545C620.366,96.336,618.575,94.545,616.366,94.545L616.366,94.545z"></path>
		</g>
		<g id="">
			<path fill="#F1F0F0" d="M632.765,136.002c-1.93,0-3.5-1.57-3.5-3.5V98.545c0-1.93,1.57-3.5,3.5-3.5h34.935
				c1.93,0,3.5,1.57,3.5,3.5v33.957c0,1.93-1.57,3.5-3.5,3.5H632.765z"></path>
			<path fill="#FFFFFF" d="M667.699,95.545c1.654,0,3,1.346,3,3v33.957c0,1.654-1.346,3-3,3h-34.935c-1.654,0-3-1.346-3-3V98.545
				c0-1.654,1.346-3,3-3H667.699 M667.699,94.545h-34.935c-2.209,0-4,1.791-4,4v33.957c0,2.209,1.791,4,4,4h34.935
				c2.209,0,4-1.791,4-4V98.545C671.699,96.336,669.908,94.545,667.699,94.545L667.699,94.545z"></path>
		</g>
		<g id="">
			<path fill="#F1F0F0" d="M107.436,237.336c-1.93,0-3.5-1.57-3.5-3.5v-33.957c0-1.93,1.57-3.5,3.5-3.5h34.935
				c1.93,0,3.5,1.57,3.5,3.5v33.957c0,1.93-1.57,3.5-3.5,3.5H107.436z"></path>
			<path fill="#FFFFFF" d="M142.37,196.879c1.654,0,3,1.346,3,3v33.957c0,1.654-1.346,3-3,3h-34.935c-1.654,0-3-1.346-3-3v-33.957
				c0-1.654,1.346-3,3-3H142.37 M142.37,195.879h-34.935c-2.209,0-4,1.791-4,4v33.957c0,2.209,1.791,4,4,4h34.935
				c2.209,0,4-1.791,4-4v-33.957C146.37,197.67,144.579,195.879,142.37,195.879L142.37,195.879z"></path>
		</g>
		<g id="">
			<path fill="#F1F0F0" d="M158.769,237.336c-1.93,0-3.5-1.57-3.5-3.5v-33.957c0-1.93,1.57-3.5,3.5-3.5h34.935
				c1.93,0,3.5,1.57,3.5,3.5v33.957c0,1.93-1.57,3.5-3.5,3.5H158.769z"></path>
			<path fill="#FFFFFF" d="M193.703,196.879c1.654,0,3,1.346,3,3v33.957c0,1.654-1.346,3-3,3h-34.935c-1.654,0-3-1.346-3-3v-33.957
				c0-1.654,1.346-3,3-3H193.703 M193.703,195.879h-34.935c-2.209,0-4,1.791-4,4v33.957c0,2.209,1.791,4,4,4h34.935
				c2.209,0,4-1.791,4-4v-33.957C197.703,197.67,195.912,195.879,193.703,195.879L193.703,195.879z"></path>
		</g>
		<g id="">
			<path fill="#F1F0F0" d="M210.102,237.336c-1.93,0-3.5-1.57-3.5-3.5v-33.957c0-1.93,1.57-3.5,3.5-3.5h34.935
				c1.93,0,3.5,1.57,3.5,3.5v33.957c0,1.93-1.57,3.5-3.5,3.5H210.102z"></path>
			<path fill="#FFFFFF" d="M245.036,196.879c1.654,0,3,1.346,3,3v33.957c0,1.654-1.346,3-3,3h-34.935c-1.654,0-3-1.346-3-3v-33.957
				c0-1.654,1.346-3,3-3H245.036 M245.036,195.879h-34.935c-2.209,0-4,1.791-4,4v33.957c0,2.209,1.791,4,4,4h34.935
				c2.209,0,4-1.791,4-4v-33.957C249.036,197.67,247.245,195.879,245.036,195.879L245.036,195.879z"></path>
		</g>
		<g id="">
			<path fill="#F1F0F0" d="M261.435,237.336c-1.93,0-3.5-1.57-3.5-3.5v-33.957c0-1.93,1.57-3.5,3.5-3.5h34.935
				c1.93,0,3.5,1.57,3.5,3.5v33.957c0,1.93-1.57,3.5-3.5,3.5H261.435z"></path>
			<path fill="#FFFFFF" d="M296.369,196.879c1.654,0,3,1.346,3,3v33.957c0,1.654-1.346,3-3,3h-34.935c-1.654,0-3-1.346-3-3v-33.957
				c0-1.654,1.346-3,3-3H296.369 M296.369,195.879h-34.935c-2.209,0-4,1.791-4,4v33.957c0,2.209,1.791,4,4,4h34.935
				c2.209,0,4-1.791,4-4v-33.957C300.369,197.67,298.578,195.879,296.369,195.879L296.369,195.879z"></path>
		</g>
		<g id="">
			<path fill="#F1F0F0" d="M312.768,237.336c-1.93,0-3.5-1.57-3.5-3.5v-33.957c0-1.93,1.57-3.5,3.5-3.5h34.935
				c1.93,0,3.5,1.57,3.5,3.5v33.957c0,1.93-1.57,3.5-3.5,3.5H312.768z"></path>
			<path fill="#FFFFFF" d="M347.702,196.879c1.654,0,3,1.346,3,3v33.957c0,1.654-1.346,3-3,3h-34.935c-1.654,0-3-1.346-3-3v-33.957
				c0-1.654,1.346-3,3-3H347.702 M347.702,195.879h-34.935c-2.209,0-4,1.791-4,4v33.957c0,2.209,1.791,4,4,4h34.935
				c2.209,0,4-1.791,4-4v-33.957C351.702,197.67,349.911,195.879,347.702,195.879L347.702,195.879z"></path>
		</g>
		<g id="">
			<path fill="#F1F0F0" d="M364.101,237.336c-1.93,0-3.5-1.57-3.5-3.5v-33.957c0-1.93,1.57-3.5,3.5-3.5h34.935
				c1.93,0,3.5,1.57,3.5,3.5v33.957c0,1.93-1.57,3.5-3.5,3.5H364.101z"></path>
			<path fill="#FFFFFF" d="M399.035,196.879c1.654,0,3,1.346,3,3v33.957c0,1.654-1.346,3-3,3h-34.935c-1.654,0-3-1.346-3-3v-33.957
				c0-1.654,1.346-3,3-3H399.035 M399.035,195.879h-34.935c-2.209,0-4,1.791-4,4v33.957c0,2.209,1.791,4,4,4h34.935
				c2.209,0,4-1.791,4-4v-33.957C403.035,197.67,401.244,195.879,399.035,195.879L399.035,195.879z"></path>
		</g>
		<g id="">
			<path fill="#F1F0F0" d="M415.434,237.336c-1.93,0-3.5-1.57-3.5-3.5v-33.957c0-1.93,1.57-3.5,3.5-3.5h34.935
				c1.93,0,3.5,1.57,3.5,3.5v33.957c0,1.93-1.57,3.5-3.5,3.5H415.434z"></path>
			<path fill="#FFFFFF" d="M450.368,196.879c1.654,0,3,1.346,3,3v33.957c0,1.654-1.346,3-3,3h-34.935c-1.654,0-3-1.346-3-3v-33.957
				c0-1.654,1.346-3,3-3H450.368 M450.368,195.879h-34.935c-2.209,0-4,1.791-4,4v33.957c0,2.209,1.791,4,4,4h34.935
				c2.209,0,4-1.791,4-4v-33.957C454.368,197.67,452.577,195.879,450.368,195.879L450.368,195.879z"></path>
		</g>
		<g id="">
			<path fill="#F1F0F0" d="M466.767,237.336c-1.93,0-3.5-1.57-3.5-3.5v-33.957c0-1.93,1.57-3.5,3.5-3.5h34.935
				c1.93,0,3.5,1.57,3.5,3.5v33.957c0,1.93-1.57,3.5-3.5,3.5H466.767z"></path>
			<path fill="#FFFFFF" d="M501.701,196.879c1.654,0,3,1.346,3,3v33.957c0,1.654-1.346,3-3,3h-34.935c-1.654,0-3-1.346-3-3v-33.957
				c0-1.654,1.346-3,3-3H501.701 M501.701,195.879h-34.935c-2.209,0-4,1.791-4,4v33.957c0,2.209,1.791,4,4,4h34.935
				c2.209,0,4-1.791,4-4v-33.957C505.701,197.67,503.91,195.879,501.701,195.879L501.701,195.879z"></path>
		</g>
		<g id="">
			<path fill="#F1F0F0" d="M518.1,237.336c-1.93,0-3.5-1.57-3.5-3.5v-33.957c0-1.93,1.57-3.5,3.5-3.5h34.935
				c1.93,0,3.5,1.57,3.5,3.5v33.957c0,1.93-1.57,3.5-3.5,3.5H518.1z"></path>
			<path fill="#FFFFFF" d="M553.034,196.879c1.654,0,3,1.346,3,3v33.957c0,1.654-1.346,3-3,3H518.1c-1.654,0-3-1.346-3-3v-33.957
				c0-1.654,1.346-3,3-3H553.034 M553.034,195.879H518.1c-2.209,0-4,1.791-4,4v33.957c0,2.209,1.791,4,4,4h34.935
				c2.209,0,4-1.791,4-4v-33.957C557.034,197.67,555.243,195.879,553.034,195.879L553.034,195.879z"></path>
		</g>
		<g id="">
			<path fill="#F1F0F0" d="M569.433,237.336c-1.93,0-3.5-1.57-3.5-3.5v-33.957c0-1.93,1.57-3.5,3.5-3.5h34.935
				c1.93,0,3.5,1.57,3.5,3.5v33.957c0,1.93-1.57,3.5-3.5,3.5H569.433z"></path>
			<path fill="#FFFFFF" d="M604.367,196.879c1.654,0,3,1.346,3,3v33.957c0,1.654-1.346,3-3,3h-34.935c-1.654,0-3-1.346-3-3v-33.957
				c0-1.654,1.346-3,3-3H604.367 M604.367,195.879h-34.935c-2.209,0-4,1.791-4,4v33.957c0,2.209,1.791,4,4,4h34.935
				c2.209,0,4-1.791,4-4v-33.957C608.367,197.67,606.576,195.879,604.367,195.879L604.367,195.879z"></path>
		</g>
		<g id="">
			<path fill="#F1F0F0" d="M620.766,237.336c-1.93,0-3.5-1.57-3.5-3.5v-33.957c0-1.93,1.57-3.5,3.5-3.5H655.7
				c1.93,0,3.5,1.57,3.5,3.5v33.957c0,1.93-1.57,3.5-3.5,3.5H620.766z"></path>
			<path fill="#FFFFFF" d="M655.7,196.879c1.654,0,3,1.346,3,3v33.957c0,1.654-1.346,3-3,3h-34.935c-1.654,0-3-1.346-3-3v-33.957
				c0-1.654,1.346-3,3-3H655.7 M655.7,195.879h-34.935c-2.209,0-4,1.791-4,4v33.957c0,2.209,1.791,4,4,4H655.7c2.209,0,4-1.791,4-4
				v-33.957C659.7,197.67,657.909,195.879,655.7,195.879L655.7,195.879z"></path>
		</g>
		<g id="">
			<path fill="#F1F0F0" d="M132.902,287.501c-1.93,0-3.5-1.57-3.5-3.5v-33.956c0-1.93,1.57-3.5,3.5-3.5h34.935
				c1.93,0,3.5,1.57,3.5,3.5v33.956c0,1.93-1.57,3.5-3.5,3.5H132.902z"></path>
			<path fill="#FFFFFF" d="M167.837,247.045c1.654,0,3,1.346,3,3v33.956c0,1.654-1.346,3-3,3h-34.935c-1.654,0-3-1.346-3-3v-33.956
				c0-1.654,1.346-3,3-3H167.837 M167.837,246.045h-34.935c-2.209,0-4,1.791-4,4v33.956c0,2.209,1.791,4,4,4h34.935
				c2.209,0,4-1.791,4-4v-33.956C171.837,247.836,170.046,246.045,167.837,246.045L167.837,246.045z"></path>
		</g>
		<g id="">
			<path fill="#F1F0F0" d="M184.235,287.501c-1.93,0-3.5-1.57-3.5-3.5v-33.956c0-1.93,1.57-3.5,3.5-3.5h34.935
				c1.93,0,3.5,1.57,3.5,3.5v33.956c0,1.93-1.57,3.5-3.5,3.5H184.235z"></path>
			<path fill="#FFFFFF" d="M219.17,247.045c1.654,0,3,1.346,3,3v33.956c0,1.654-1.346,3-3,3h-34.935c-1.654,0-3-1.346-3-3v-33.956
				c0-1.654,1.346-3,3-3H219.17 M219.17,246.045h-34.935c-2.209,0-4,1.791-4,4v33.956c0,2.209,1.791,4,4,4h34.935
				c2.209,0,4-1.791,4-4v-33.956C223.17,247.836,221.379,246.045,219.17,246.045L219.17,246.045z"></path>
		</g>
		<g id="">
			<path fill="#F1F0F0" d="M235.568,287.501c-1.93,0-3.5-1.57-3.5-3.5v-33.956c0-1.93,1.57-3.5,3.5-3.5h34.935
				c1.93,0,3.5,1.57,3.5,3.5v33.956c0,1.93-1.57,3.5-3.5,3.5H235.568z"></path>
			<path fill="#FFFFFF" d="M270.503,247.045c1.654,0,3,1.346,3,3v33.956c0,1.654-1.346,3-3,3h-34.935c-1.654,0-3-1.346-3-3v-33.956
				c0-1.654,1.346-3,3-3H270.503 M270.503,246.045h-34.935c-2.209,0-4,1.791-4,4v33.956c0,2.209,1.791,4,4,4h34.935
				c2.209,0,4-1.791,4-4v-33.956C274.503,247.836,272.712,246.045,270.503,246.045L270.503,246.045z"></path>
		</g>
		<g id="">
			<path fill="#F1F0F0" d="M286.901,287.501c-1.93,0-3.5-1.57-3.5-3.5v-33.956c0-1.93,1.57-3.5,3.5-3.5h34.935
				c1.93,0,3.5,1.57,3.5,3.5v33.956c0,1.93-1.57,3.5-3.5,3.5H286.901z"></path>
			<path fill="#FFFFFF" d="M321.836,247.045c1.654,0,3,1.346,3,3v33.956c0,1.654-1.346,3-3,3h-34.935c-1.654,0-3-1.346-3-3v-33.956
				c0-1.654,1.346-3,3-3H321.836 M321.836,246.045h-34.935c-2.209,0-4,1.791-4,4v33.956c0,2.209,1.791,4,4,4h34.935
				c2.209,0,4-1.791,4-4v-33.956C325.836,247.836,324.045,246.045,321.836,246.045L321.836,246.045z"></path>
		</g>
		<g id="">
			<path fill="#F1F0F0" d="M338.234,287.501c-1.93,0-3.5-1.57-3.5-3.5v-33.956c0-1.93,1.57-3.5,3.5-3.5h34.935
				c1.93,0,3.5,1.57,3.5,3.5v33.956c0,1.93-1.57,3.5-3.5,3.5H338.234z"></path>
			<path fill="#FFFFFF" d="M373.169,247.045c1.654,0,3,1.346,3,3v33.956c0,1.654-1.346,3-3,3h-34.935c-1.654,0-3-1.346-3-3v-33.956
				c0-1.654,1.346-3,3-3H373.169 M373.169,246.045h-34.935c-2.209,0-4,1.791-4,4v33.956c0,2.209,1.791,4,4,4h34.935
				c2.209,0,4-1.791,4-4v-33.956C377.169,247.836,375.378,246.045,373.169,246.045L373.169,246.045z"></path>
		</g>
		<g id="">
			<path fill="#F1F0F0" d="M389.567,287.501c-1.93,0-3.5-1.57-3.5-3.5v-33.956c0-1.93,1.57-3.5,3.5-3.5h34.935
				c1.93,0,3.5,1.57,3.5,3.5v33.956c0,1.93-1.57,3.5-3.5,3.5H389.567z"></path>
			<path fill="#FFFFFF" d="M424.502,247.045c1.654,0,3,1.346,3,3v33.956c0,1.654-1.346,3-3,3h-34.935c-1.654,0-3-1.346-3-3v-33.956
				c0-1.654,1.346-3,3-3H424.502 M424.502,246.045h-34.935c-2.209,0-4,1.791-4,4v33.956c0,2.209,1.791,4,4,4h34.935
				c2.209,0,4-1.791,4-4v-33.956C428.502,247.836,426.711,246.045,424.502,246.045L424.502,246.045z"></path>
		</g>
		<g id="">
			<path fill="#F1F0F0" d="M440.9,287.501c-1.93,0-3.5-1.57-3.5-3.5v-33.956c0-1.93,1.57-3.5,3.5-3.5h34.935
				c1.93,0,3.5,1.57,3.5,3.5v33.956c0,1.93-1.57,3.5-3.5,3.5H440.9z"></path>
			<path fill="#FFFFFF" d="M475.835,247.045c1.654,0,3,1.346,3,3v33.956c0,1.654-1.346,3-3,3H440.9c-1.654,0-3-1.346-3-3v-33.956
				c0-1.654,1.346-3,3-3H475.835 M475.835,246.045H440.9c-2.209,0-4,1.791-4,4v33.956c0,2.209,1.791,4,4,4h34.935
				c2.209,0,4-1.791,4-4v-33.956C479.835,247.836,478.044,246.045,475.835,246.045L475.835,246.045z"></path>
		</g>
		<g id="">
			<path fill="#F1F0F0" d="M492.233,287.501c-1.93,0-3.5-1.57-3.5-3.5v-33.956c0-1.93,1.57-3.5,3.5-3.5h34.935
				c1.93,0,3.5,1.57,3.5,3.5v33.956c0,1.93-1.57,3.5-3.5,3.5H492.233z"></path>
			<path fill="#FFFFFF" d="M527.168,247.045c1.654,0,3,1.346,3,3v33.956c0,1.654-1.346,3-3,3h-34.935c-1.654,0-3-1.346-3-3v-33.956
				c0-1.654,1.346-3,3-3H527.168 M527.168,246.045h-34.935c-2.209,0-4,1.791-4,4v33.956c0,2.209,1.791,4,4,4h34.935
				c2.209,0,4-1.791,4-4v-33.956C531.168,247.836,529.377,246.045,527.168,246.045L527.168,246.045z"></path>
		</g>
		<g id="">
			<path fill="#F1F0F0" d="M543.566,287.501c-1.93,0-3.5-1.57-3.5-3.5v-33.956c0-1.93,1.57-3.5,3.5-3.5h34.935
				c1.93,0,3.5,1.57,3.5,3.5v33.956c0,1.93-1.57,3.5-3.5,3.5H543.566z"></path>
			<path fill="#FFFFFF" d="M578.501,247.045c1.654,0,3,1.346,3,3v33.956c0,1.654-1.346,3-3,3h-34.935c-1.654,0-3-1.346-3-3v-33.956
				c0-1.654,1.346-3,3-3H578.501 M578.501,246.045h-34.935c-2.209,0-4,1.791-4,4v33.956c0,2.209,1.791,4,4,4h34.935
				c2.209,0,4-1.791,4-4v-33.956C582.501,247.836,580.71,246.045,578.501,246.045L578.501,246.045z"></path>
		</g>
		<g id="">
			<path fill="#F1F0F0" d="M594.899,287.501c-1.93,0-3.5-1.57-3.5-3.5v-33.956c0-1.93,1.57-3.5,3.5-3.5h34.935
				c1.93,0,3.5,1.57,3.5,3.5v33.956c0,1.93-1.57,3.5-3.5,3.5H594.899z"></path>
			<path fill="#FFFFFF" d="M629.834,247.045c1.654,0,3,1.346,3,3v33.956c0,1.654-1.346,3-3,3h-34.935c-1.654,0-3-1.346-3-3v-33.956
				c0-1.654,1.346-3,3-3H629.834 M629.834,246.045h-34.935c-2.209,0-4,1.791-4,4v33.956c0,2.209,1.791,4,4,4h34.935
				c2.209,0,4-1.791,4-4v-33.956C633.834,247.836,632.043,246.045,629.834,246.045L629.834,246.045z"></path>
		</g>
		<g id="">
			<path fill="#F1F0F0" d="M646.232,287.501c-1.93,0-3.5-1.57-3.5-3.5v-33.956c0-1.93,1.57-3.5,3.5-3.5h101.698
				c1.93,0,3.5,1.57,3.5,3.5v33.956c0,1.93-1.57,3.5-3.5,3.5H646.232z"></path>
			<path fill="#FFFFFF" d="M747.931,247.045c1.654,0,3,1.346,3,3v33.956c0,1.654-1.346,3-3,3H646.232c-1.654,0-3-1.346-3-3v-33.956
				c0-1.654,1.346-3,3-3H747.931 M747.931,246.045H646.232c-2.209,0-4,1.791-4,4v33.956c0,2.209,1.791,4,4,4h101.698
				c2.209,0,4-1.791,4-4v-33.956C751.931,247.836,750.14,246.045,747.931,246.045L747.931,246.045z"></path>
		</g>
		<g id="">
			<path fill="#F1F0F0" d="M672.099,237.336c-1.93,0-3.5-1.57-3.5-3.5v-33.957c0-1.93,1.57-3.5,3.5-3.5h75.832
				c1.93,0,3.5,1.57,3.5,3.5v33.957c0,1.93-1.57,3.5-3.5,3.5H672.099z"></path>
			<path fill="#FFFFFF" d="M747.931,196.879c1.654,0,3,1.346,3,3v33.957c0,1.654-1.346,3-3,3h-75.832c-1.654,0-3-1.346-3-3v-33.957
				c0-1.654,1.346-3,3-3H747.931 M747.931,195.879h-75.832c-2.209,0-4,1.791-4,4v33.957c0,2.209,1.791,4,4,4h75.832
				c2.209,0,4-1.791,4-4v-33.957C751.931,197.67,750.14,195.879,747.931,195.879L747.931,195.879z"></path>
		</g>
		<g id="">
			<path fill="#F1F0F0" d="M684.098,136.002c-1.93,0-3.5-1.57-3.5-3.5V98.545c0-1.93,1.57-3.5,3.5-3.5H748c1.93,0,3.5,1.57,3.5,3.5
				v33.957c0,1.93-1.57,3.5-3.5,3.5H684.098z"></path>
			<path fill="#FFFFFF" d="M748,95.545c1.654,0,3,1.346,3,3v33.957c0,1.654-1.346,3-3,3h-63.902c-1.654,0-3-1.346-3-3V98.545
				c0-1.654,1.346-3,3-3H748 M748,94.545h-63.902c-2.209,0-4,1.791-4,4v33.957c0,2.209,1.791,4,4,4H748c2.209,0,4-1.791,4-4V98.545
				C752,96.336,750.209,94.545,748,94.545L748,94.545z"></path>
		</g>
		<g id="">
			<path fill="#F1F0F0" d="M70.199,86.137c-1.93,0-3.5-1.57-3.5-3.5v-18.76c0-1.93,1.57-3.5,3.5-3.5h36.935c1.93,0,3.5,1.57,3.5,3.5
				v18.76c0,1.93-1.57,3.5-3.5,3.5H70.199z"></path>
			<path fill="#FFFFFF" d="M107.134,60.877c1.654,0,3,1.346,3,3v18.76c0,1.654-1.346,3-3,3H70.199c-1.654,0-3-1.346-3-3v-18.76
				c0-1.654,1.346-3,3-3H107.134 M107.134,59.877H70.199c-2.209,0-4,1.791-4,4v18.76c0,2.209,1.791,4,4,4h36.935
				c2.209,0,4-1.791,4-4v-18.76C111.134,61.668,109.343,59.877,107.134,59.877L107.134,59.877z"></path>
		</g>
		<g id="">
			<path fill="#F1F0F0" d="M123.63,86.137c-1.93,0-3.5-1.57-3.5-3.5v-18.76c0-1.93,1.57-3.5,3.5-3.5h36.935c1.93,0,3.5,1.57,3.5,3.5
				v18.76c0,1.93-1.57,3.5-3.5,3.5H123.63z"></path>
			<path fill="#FFFFFF" d="M160.564,60.877c1.654,0,3,1.346,3,3v18.76c0,1.654-1.346,3-3,3H123.63c-1.654,0-3-1.346-3-3v-18.76
				c0-1.654,1.346-3,3-3H160.564 M160.564,59.877H123.63c-2.209,0-4,1.791-4,4v18.76c0,2.209,1.791,4,4,4h36.935
				c2.209,0,4-1.791,4-4v-18.76C164.564,61.668,162.773,59.877,160.564,59.877L160.564,59.877z"></path>
		</g>
		<g id="">
			<path fill="#F1F0F0" d="M177.061,86.137c-1.93,0-3.5-1.57-3.5-3.5v-18.76c0-1.93,1.57-3.5,3.5-3.5h36.935
				c1.93,0,3.5,1.57,3.5,3.5v18.76c0,1.93-1.57,3.5-3.5,3.5H177.061z"></path>
			<path fill="#FFFFFF" d="M213.995,60.877c1.654,0,3,1.346,3,3v18.76c0,1.654-1.346,3-3,3h-36.935c-1.654,0-3-1.346-3-3v-18.76
				c0-1.654,1.346-3,3-3H213.995 M213.995,59.877h-36.935c-2.209,0-4,1.791-4,4v18.76c0,2.209,1.791,4,4,4h36.935
				c2.209,0,4-1.791,4-4v-18.76C217.995,61.668,216.204,59.877,213.995,59.877L213.995,59.877z"></path>
		</g>
		<g id="">
			<path fill="#F1F0F0" d="M230.491,86.137c-1.93,0-3.5-1.57-3.5-3.5v-18.76c0-1.93,1.57-3.5,3.5-3.5h36.935
				c1.93,0,3.5,1.57,3.5,3.5v18.76c0,1.93-1.57,3.5-3.5,3.5H230.491z"></path>
			<path fill="#FFFFFF" d="M267.426,60.877c1.654,0,3,1.346,3,3v18.76c0,1.654-1.346,3-3,3h-36.935c-1.654,0-3-1.346-3-3v-18.76
				c0-1.654,1.346-3,3-3H267.426 M267.426,59.877h-36.935c-2.209,0-4,1.791-4,4v18.76c0,2.209,1.791,4,4,4h36.935
				c2.209,0,4-1.791,4-4v-18.76C271.426,61.668,269.635,59.877,267.426,59.877L267.426,59.877z"></path>
		</g>
		<g id="">
			<path fill="#F1F0F0" d="M283.922,86.137c-1.93,0-3.5-1.57-3.5-3.5v-18.76c0-1.93,1.57-3.5,3.5-3.5h36.935
				c1.93,0,3.5,1.57,3.5,3.5v18.76c0,1.93-1.57,3.5-3.5,3.5H283.922z"></path>
			<path fill="#FFFFFF" d="M320.856,60.877c1.654,0,3,1.346,3,3v18.76c0,1.654-1.346,3-3,3h-36.935c-1.654,0-3-1.346-3-3v-18.76
				c0-1.654,1.346-3,3-3H320.856 M320.856,59.877h-36.935c-2.209,0-4,1.791-4,4v18.76c0,2.209,1.791,4,4,4h36.935
				c2.209,0,4-1.791,4-4v-18.76C324.856,61.668,323.065,59.877,320.856,59.877L320.856,59.877z"></path>
		</g>
		<g id="">
			<path fill="#F1F0F0" d="M337.353,86.137c-1.93,0-3.5-1.57-3.5-3.5v-18.76c0-1.93,1.57-3.5,3.5-3.5h36.935
				c1.93,0,3.5,1.57,3.5,3.5v18.76c0,1.93-1.57,3.5-3.5,3.5H337.353z"></path>
			<path fill="#FFFFFF" d="M374.287,60.877c1.654,0,3,1.346,3,3v18.76c0,1.654-1.346,3-3,3h-36.935c-1.654,0-3-1.346-3-3v-18.76
				c0-1.654,1.346-3,3-3H374.287 M374.287,59.877h-36.935c-2.209,0-4,1.791-4,4v18.76c0,2.209,1.791,4,4,4h36.935
				c2.209,0,4-1.791,4-4v-18.76C378.287,61.668,376.496,59.877,374.287,59.877L374.287,59.877z"></path>
		</g>
		<g id="">
			<path fill="#F1F0F0" d="M390.783,86.137c-1.93,0-3.5-1.57-3.5-3.5v-18.76c0-1.93,1.57-3.5,3.5-3.5h36.935
				c1.93,0,3.5,1.57,3.5,3.5v18.76c0,1.93-1.57,3.5-3.5,3.5H390.783z"></path>
			<path fill="#FFFFFF" d="M427.718,60.877c1.654,0,3,1.346,3,3v18.76c0,1.654-1.346,3-3,3h-36.935c-1.654,0-3-1.346-3-3v-18.76
				c0-1.654,1.346-3,3-3H427.718 M427.718,59.877h-36.935c-2.209,0-4,1.791-4,4v18.76c0,2.209,1.791,4,4,4h36.935
				c2.209,0,4-1.791,4-4v-18.76C431.718,61.668,429.927,59.877,427.718,59.877L427.718,59.877z"></path>
		</g>
		<g id="">
			<path fill="#F1F0F0" d="M444.214,86.137c-1.93,0-3.5-1.57-3.5-3.5v-18.76c0-1.93,1.57-3.5,3.5-3.5h36.935
				c1.93,0,3.5,1.57,3.5,3.5v18.76c0,1.93-1.57,3.5-3.5,3.5H444.214z"></path>
			<path fill="#FFFFFF" d="M481.148,60.877c1.654,0,3,1.346,3,3v18.76c0,1.654-1.346,3-3,3h-36.935c-1.654,0-3-1.346-3-3v-18.76
				c0-1.654,1.346-3,3-3H481.148 M481.148,59.877h-36.935c-2.209,0-4,1.791-4,4v18.76c0,2.209,1.791,4,4,4h36.935
				c2.209,0,4-1.791,4-4v-18.76C485.148,61.668,483.357,59.877,481.148,59.877L481.148,59.877z"></path>
		</g>
		<g id="">
			<path fill="#F1F0F0" d="M497.645,86.137c-1.93,0-3.5-1.57-3.5-3.5v-18.76c0-1.93,1.57-3.5,3.5-3.5h36.935
				c1.93,0,3.5,1.57,3.5,3.5v18.76c0,1.93-1.57,3.5-3.5,3.5H497.645z"></path>
			<path fill="#FFFFFF" d="M534.579,60.877c1.654,0,3,1.346,3,3v18.76c0,1.654-1.346,3-3,3h-36.935c-1.654,0-3-1.346-3-3v-18.76
				c0-1.654,1.346-3,3-3H534.579 M534.579,59.877h-36.935c-2.209,0-4,1.791-4,4v18.76c0,2.209,1.791,4,4,4h36.935
				c2.209,0,4-1.791,4-4v-18.76C538.579,61.668,536.788,59.877,534.579,59.877L534.579,59.877z"></path>
		</g>
		<g id="">
			<path fill="#F1F0F0" d="M551.075,86.137c-1.93,0-3.5-1.57-3.5-3.5v-18.76c0-1.93,1.57-3.5,3.5-3.5h36.935
				c1.93,0,3.5,1.57,3.5,3.5v18.76c0,1.93-1.57,3.5-3.5,3.5H551.075z"></path>
			<path fill="#FFFFFF" d="M588.01,60.877c1.654,0,3,1.346,3,3v18.76c0,1.654-1.346,3-3,3h-36.935c-1.654,0-3-1.346-3-3v-18.76
				c0-1.654,1.346-3,3-3H588.01 M588.01,59.877h-36.935c-2.209,0-4,1.791-4,4v18.76c0,2.209,1.791,4,4,4h36.935c2.209,0,4-1.791,4-4
				v-18.76C592.01,61.668,590.219,59.877,588.01,59.877L588.01,59.877z"></path>
		</g>
		<g id="">
			<path fill="#F1F0F0" d="M604.506,86.137c-1.93,0-3.5-1.57-3.5-3.5v-18.76c0-1.93,1.57-3.5,3.5-3.5h36.935
				c1.93,0,3.5,1.57,3.5,3.5v18.76c0,1.93-1.57,3.5-3.5,3.5H604.506z"></path>
			<path fill="#FFFFFF" d="M641.44,60.877c1.654,0,3,1.346,3,3v18.76c0,1.654-1.346,3-3,3h-36.935c-1.654,0-3-1.346-3-3v-18.76
				c0-1.654,1.346-3,3-3H641.44 M641.44,59.877h-36.935c-2.209,0-4,1.791-4,4v18.76c0,2.209,1.791,4,4,4h36.935c2.209,0,4-1.791,4-4
				v-18.76C645.44,61.668,643.649,59.877,641.44,59.877L641.44,59.877z"></path>
		</g>
		<g id="">
			<path fill="#F1F0F0" d="M657.937,86.137c-1.93,0-3.5-1.57-3.5-3.5v-18.76c0-1.93,1.57-3.5,3.5-3.5h36.935
				c1.93,0,3.5,1.57,3.5,3.5v18.76c0,1.93-1.57,3.5-3.5,3.5H657.937z"></path>
			<path fill="#FFFFFF" d="M694.871,60.877c1.654,0,3,1.346,3,3v18.76c0,1.654-1.346,3-3,3h-36.935c-1.654,0-3-1.346-3-3v-18.76
				c0-1.654,1.346-3,3-3H694.871 M694.871,59.877h-36.935c-2.209,0-4,1.791-4,4v18.76c0,2.209,1.791,4,4,4h36.935
				c2.209,0,4-1.791,4-4v-18.76C698.871,61.668,697.08,59.877,694.871,59.877L694.871,59.877z"></path>
		</g>
		<g id="">
			<path fill="#F1F0F0" d="M711.367,86.137c-1.93,0-3.5-1.57-3.5-3.5v-18.76c0-1.93,1.57-3.5,3.5-3.5h36.935
				c1.93,0,3.5,1.57,3.5,3.5v18.76c0,1.93-1.57,3.5-3.5,3.5H711.367z"></path>
			<path fill="#FFFFFF" d="M748.302,60.877c1.654,0,3,1.346,3,3v18.76c0,1.654-1.346,3-3,3h-36.935c-1.654,0-3-1.346-3-3v-18.76
				c0-1.654,1.346-3,3-3H748.302 M748.302,59.877h-36.935c-2.209,0-4,1.791-4,4v18.76c0,2.209,1.791,4,4,4h36.935
				c2.209,0,4-1.791,4-4v-18.76C752.302,61.668,750.511,59.877,748.302,59.877L748.302,59.877z"></path>
		</g>
	</g>
</g>
</svg>