<svg version="1.1" xmlns="http://www.w3.org/2000/svg" xmlns:xlink="http://www.w3.org/1999/xlink" x="0px" y="0px" viewBox="-0.001 0 350 349.945" enable-background="new -0.001 0 350 349.945" xml:space="preserve" style="position: absolute;">
<g>
	<path fill="hsl(210,100%,40%)" d="M51.489,3.007l45.652,45.656L86.893,86.891L48.667,97.14L3.016,51.492
		c-7.324,24.585-1.319,52.311,18.113,71.719c28.218,28.199,73.919,28.199,102.122,0c28.164-28.199,28.164-73.897,0-102.09
		C103.782,1.713,76.057-4.306,51.489,3.007z" class="color color-1" data-color="#717273"></path>
	<path fill="hsl(210,100%,40%)" d="M150.344,100.5c-4.1,11.31-10.646,21.678-19.38,30.42c-8.944,8.905-19.338,15.327-30.498,19.33
		l182.041,188.132c15.433,15.418,40.471,15.418,55.918,0c15.433-15.44,15.433-40.429,0-55.862L150.344,100.5z M324.506,324.483
		c-6.932,6.91-18.107,6.91-25.053,0c-6.932-6.896-6.932-18.142,0-25.045c6.945-6.896,18.121-6.896,25.053,0
		C331.388,306.342,331.388,317.587,324.506,324.483z" class="color color-1" data-color="#717273"></path>
</g>
</svg>